<svg viewBox="0 0 256 256" xmlns="http://www.w3.org/2000/svg"><path d="m140 257c-46.666664 0-92.833328 0-138.999994 0-.000002-85.333328-.000002-170.666649-.000004-255.999982 85.333319-.000006 170.666639-.000006 255.999998-.000012v255.999963c-38.833328.000031-77.666672.000031-117 .000031m-83.550289-135.891953c-.135597-.651496-.251831-1.307731-.409561-1.953819-9.230248-37.808502 23.452564-67.728332 57.603588-59.384182 1.27462.311428 3.250328.166714 4.107742-.623897 5.098068-4.700863 9.962792-9.654793 15.544541-15.152764-2.997117-1.263969-5.037064-2.250457-7.160378-3.00111-43.101341-15.237449-87.707298 12.480946-92.785999 57.965626-1.513884 13.558319.217865 26.866074 7.53807 39.681732 14.613232 27.325958 43.576107 41.137879 74.169758 35.594727 10.375923-1.879975 19.29377-6.795151 28.423409-11.785065 22.179641 22.157333 44.359283 44.314667 65.770538 65.704376 5.453598-5.065582 10.401886-9.661819 15.136063-14.059173-22.203965-22.399094-44.324158-44.713684-66.333084-67.723572 7.428848-10.107361 11.982757-21.291573 13.048996-34.193955-7.093354 0-13.844712 0-20.825837 0-2.521515 16.960511-11.123626 29.927811-26.527549 37.427582-24.034836 11.701905-55.666878 2.955216-67.300297-28.496506m170.558727-43.782508c3.504578-.926308 7.009155-1.852608 11.297775-2.986145-28.043457-5.80819-44.72258-22.50166-50.665985-50.475485-6.187301 28.643579-23.209594 45.135366-51.891037 50.720381 24.009339 2.563919 47.08226 21.032585 51.917847 50.018882 2.058426-10.604126 5.87529-20.414856 12.899811-28.710945 7.003174-8.270889 15.318924-14.745079 26.441589-18.566688z" fill="#fff"/><path d="m143.070145 161.93309c-8.718903 5.506119-17.63675 10.421295-28.012673 12.30127-30.593651 5.543152-59.556526-8.268769-74.147857-36.264328 5.18996-5.819947 10.358017-10.970291 15.526069-16.120629 11.647446 30.710366 43.279488 39.457055 67.314324 27.75515 15.403923-7.499771 24.006034-20.467071 26.527549-37.427582h20.825837c-1.066239 12.902382-5.620148 24.086594-13.385041 34.707657-5.106765 5.358612-9.877487 10.203537-14.648208 15.048462z" fill="#fbbc08"/><path d="m56.442696 121.478729c-5.175064 5.521012-10.343121 10.671356-15.638768 16.1409-7.236419-11.795654-8.968168-25.103409-7.454284-38.661728 5.078701-45.48468 49.684658-73.203075 92.785999-57.965626 2.123314.750653 4.163261 1.737141 7.160378 3.00111-5.581749 5.497971-10.446473 10.451901-15.544541 15.152764-.857414.790611-2.833122.935325-4.107742.623897-34.151024-8.34415-66.833836 21.57568-57.603588 59.384182.15773.646088.273964 1.302323.402546 2.324501z" fill="#ea4637"/><path d="m226.647995 77.482513c-10.762222 3.664635-19.077972 10.138825-26.081146 18.409714-7.024521 8.296089-10.841385 18.106819-12.899811 28.710945-4.835587-28.986297-27.908508-47.454963-51.917847-50.018882 28.681443-5.585015 45.703736-22.076802 51.891037-50.720381 5.943405 27.973825 22.622528 44.667295 50.665985 50.475485-4.28862 1.133537-7.793197 2.059837-11.658218 3.143119z" fill="#4486f4"/><path d="m143.275513 162.191193c4.565353-5.103028 9.336075-9.947953 14.387207-14.958924 22.400604 22.148545 44.520797 44.463135 66.724762 66.862229-4.734177 4.397354-9.682465 8.993591-15.136063 14.059173-21.411255-21.389709-43.590897-43.547043-65.975906-65.962478z" fill="#39a955"/></svg>