<svg height="100" preserveAspectRatio="xMidYMid meet" viewBox="0 0 75 74.999997" width="100" xmlns="http://www.w3.org/2000/svg" zoomAndPan="magnify"><path d="m-7.5-7.5h90v89.999996h-90z" fill="#fff"/><path d="m-7.5-7.5h90v89.999996h-90z"/><path d="m47.167969 58.664062-5.378907-1.402343v-25.667969l5.757813-1.457031c3.15625-.800781 5.804687-1.457031 5.933594-1.429688.101562 0 .175781 7.054688.175781 15.691407v15.695312l-.554688-.023438c-.328124 0-3.003906-.652343-5.933593-1.410156zm0 0" fill="#00c8d2"/><path d="m22.09375 52.210938c0-8.636719.074219-15.71875.203125-15.71875.101563-.023438 2.75.632812 5.933594 1.433593l5.730469 1.453125-.050782 12.785156-.074218 12.777344-5.152344 1.332032c-2.828125.726562-5.480469 1.40625-5.859375 1.480468l-.730469.179688zm0 0" fill="#3c8cff"/><path d="m60.726562 39.378906c0-28.5.023438-30.03125.453126-29.902344.226562.074219 2.476562.652344 4.976562 1.28125 2.5.652344 4.972656 1.277344 5.503906 1.402344l.933594.253906-.050781 27.015626-.074219 27.042968-5.128906 1.308594c-2.800782.726562-5.453125 1.378906-5.855469 1.484375l-.757813.171875zm0 0" fill="#78e6dc"/><path d="m3.15625 39.480469c0-14.765625.074219-26.84375.203125-26.84375.101563 0 2.75.652343 5.90625 1.433593l5.757813 1.457032v23.929687c0 13.128907-.050782 23.90625-.101563 23.90625-.074219 0-2.75.675781-5.933594 1.480469l-5.832031 1.480469v-26.847657zm0 0" fill="#325ab4" fill-rule="evenodd"/></svg>