<svg xmlns="http://www.w3.org/2000/svg" xmlns:xlink="http://www.w3.org/1999/xlink" width="100" zoomAndPan="magnify" viewBox="0 0 75 74.999997" height="100" preserveAspectRatio="xMidYMid meet" version="1.0"><defs><clipPath id="67ea2308af"><path d="M 1.085938 1.085938 L 73 1.085938 L 73 45 L 1.085938 45 Z M 1.085938 1.085938 " clip-rule="nonzero"/></clipPath><clipPath id="40f139382b"><path d="M 30 40 L 73.835938 40 L 73.835938 73.835938 L 30 73.835938 Z M 30 40 " clip-rule="nonzero"/></clipPath><clipPath id="5ea68d9bd8"><path d="M 1.085938 47 L 27 47 L 27 73.835938 L 1.085938 73.835938 Z M 1.085938 47 " clip-rule="nonzero"/></clipPath></defs><rect x="-7.5" width="90" fill="#ffffff" y="-7.5" height="89.999996" fill-opacity="1"/><rect x="-7.5" width="90" fill="#000000" y="-7.5" height="89.999996" fill-opacity="1"/><g clip-path="url(#67ea2308af)"><path fill="#39594d" d="M 24.660156 44.445312 C 26.597656 44.445312 30.476562 44.347656 35.910156 42.117188 C 42.214844 39.5 54.632812 34.84375 63.652344 29.992188 C 69.957031 26.597656 72.671875 22.136719 72.671875 16.121094 C 72.671875 7.878906 65.980469 1.085938 57.636719 1.085938 L 22.71875 1.085938 C 10.789062 1.085938 1.085938 10.789062 1.085938 22.71875 C 1.085938 34.648438 10.207031 44.445312 24.660156 44.445312 Z M 24.660156 44.445312 " fill-opacity="1" fill-rule="evenodd"/></g><g clip-path="url(#40f139382b)"><path fill="#d18ee2" d="M 30.574219 59.289062 C 30.574219 53.46875 34.066406 48.132812 39.5 45.902344 L 50.460938 41.34375 C 61.617188 36.785156 73.835938 44.929688 73.835938 56.960938 C 73.835938 66.273438 66.273438 73.835938 56.960938 73.835938 L 45.027344 73.835938 C 37.074219 73.835938 30.574219 67.339844 30.574219 59.289062 Z M 30.574219 59.289062 " fill-opacity="1" fill-rule="evenodd"/></g><g clip-path="url(#5ea68d9bd8)"><path fill="#ff7759" d="M 13.601562 47.257812 C 6.714844 47.257812 1.085938 52.886719 1.085938 59.773438 L 1.085938 61.421875 C 1.085938 68.210938 6.714844 73.835938 13.601562 73.835938 C 20.488281 73.835938 26.113281 68.210938 26.113281 61.324219 L 26.113281 59.675781 C 26.015625 52.886719 20.488281 47.257812 13.601562 47.257812 Z M 13.601562 47.257812 " fill-opacity="1" fill-rule="nonzero"/></g></svg>