<svg xmlns="http://www.w3.org/2000/svg" xmlns:xlink="http://www.w3.org/1999/xlink" width="100" zoomAndPan="magnify" viewBox="0 0 75 74.999997" height="100" preserveAspectRatio="xMidYMid meet" version="1.0"><defs><clipPath id="54dce757c4"><path d="M 6 2 L 36 2 L 36 73 L 6 73 Z M 6 2 " clip-rule="nonzero"/></clipPath><clipPath id="5a1ca8536e"><path d="M 6.992188 51.226562 L 6.992188 23.742188 C 6.992188 21.648438 8.386719 19.277344 10.335938 18.160156 L 35.265625 2.671875 L 35.265625 17.878906 L 20.78125 26.667969 C 19.390625 27.507812 18.554688 29.039062 18.554688 30.4375 L 18.554688 45.785156 C 18.554688 47.179688 19.25 48.574219 20.222656 49.132812 L 35.265625 58.0625 L 35.265625 72.152344 L 9.5 56.25 C 8.109375 55.273438 6.992188 53.179688 6.992188 51.226562 Z M 6.992188 51.226562 " clip-rule="nonzero"/></clipPath><linearGradient x1="2115.969913" gradientTransform="matrix(0.26563, 0, 0, 0.266085, -555.072546, -81.516088)" y1="446.95999" x2="2222.409907" gradientUnits="userSpaceOnUse" y2="446.95999" id="d511c22e20"><stop stop-opacity="1" stop-color="rgb(7.798767%, 16.499329%, 27.799988%)" offset="0"/><stop stop-opacity="1" stop-color="rgb(7.798767%, 16.499329%, 27.799988%)" offset="0.25"/><stop stop-opacity="1" stop-color="rgb(7.810974%, 16.569519%, 27.890015%)" offset="0.28125"/><stop stop-opacity="1" stop-color="rgb(7.839966%, 16.732788%, 28.102112%)" offset="0.3125"/><stop stop-opacity="1" stop-color="rgb(7.873535%, 16.920471%, 28.343201%)" offset="0.34375"/><stop stop-opacity="1" stop-color="rgb(7.907104%, 17.106628%, 28.58429%)" offset="0.375"/><stop stop-opacity="1" stop-color="rgb(7.939148%, 17.294312%, 28.826904%)" offset="0.40625"/><stop stop-opacity="1" stop-color="rgb(7.972717%, 17.480469%, 29.067993%)" offset="0.4375"/><stop stop-opacity="1" stop-color="rgb(8.006287%, 17.668152%, 29.309082%)" offset="0.46875"/><stop stop-opacity="1" stop-color="rgb(8.03833%, 17.854309%, 29.550171%)" offset="0.5"/><stop stop-opacity="1" stop-color="rgb(8.071899%, 18.041992%, 29.79126%)" offset="0.53125"/><stop stop-opacity="1" stop-color="rgb(8.105469%, 18.228149%, 30.033875%)" offset="0.5625"/><stop stop-opacity="1" stop-color="rgb(8.137512%, 18.414307%, 30.274963%)" offset="0.59375"/><stop stop-opacity="1" stop-color="rgb(8.171082%, 18.60199%, 30.516052%)" offset="0.625"/><stop stop-opacity="1" stop-color="rgb(8.204651%, 18.788147%, 30.757141%)" offset="0.65625"/><stop stop-opacity="1" stop-color="rgb(8.236694%, 18.97583%, 30.99823%)" offset="0.6875"/><stop stop-opacity="1" stop-color="rgb(8.270264%, 19.161987%, 31.240845%)" offset="0.71875"/><stop stop-opacity="1" stop-color="rgb(8.303833%, 19.34967%, 31.481934%)" offset="0.75"/><stop stop-opacity="1" stop-color="rgb(8.335876%, 19.535828%, 31.723022%)" offset="0.78125"/><stop stop-opacity="1" stop-color="rgb(8.369446%, 19.723511%, 31.964111%)" offset="0.8125"/><stop stop-opacity="1" stop-color="rgb(8.403015%, 19.909668%, 32.2052%)" offset="0.84375"/><stop stop-opacity="1" stop-color="rgb(8.435059%, 20.095825%, 32.447815%)" offset="0.875"/><stop stop-opacity="1" stop-color="rgb(8.468628%, 20.283508%, 32.688904%)" offset="0.90625"/><stop stop-opacity="1" stop-color="rgb(8.502197%, 20.469666%, 32.929993%)" offset="0.9375"/><stop stop-opacity="1" stop-color="rgb(8.534241%, 20.657349%, 33.171082%)" offset="0.96875"/><stop stop-opacity="1" stop-color="rgb(8.56781%, 20.843506%, 33.41217%)" offset="1"/></linearGradient><clipPath id="2cdb143a8c"><path d="M 39 2 L 68 2 L 68 73 L 39 73 Z M 39 2 " clip-rule="nonzero"/></clipPath><clipPath id="2468cf3d76"><path d="M 39.445312 72.152344 L 39.445312 58.0625 L 54.488281 49.132812 C 55.460938 48.574219 56.160156 47.179688 56.160156 45.785156 L 56.160156 30.4375 C 56.160156 29.042969 55.320312 27.507812 53.929688 26.667969 L 39.445312 17.878906 L 39.445312 2.671875 L 64.378906 18.160156 C 66.328125 19.273438 67.71875 21.648438 67.71875 23.738281 L 67.71875 51.222656 C 67.71875 53.175781 66.605469 55.269531 65.210938 56.246094 Z M 39.445312 72.152344 " clip-rule="nonzero"/></clipPath><linearGradient x1="2238.139902" gradientTransform="matrix(0.26563, 0, 0, 0.266085, -555.072546, -81.516088)" y1="446.95999" x2="2344.5799" gradientUnits="userSpaceOnUse" y2="446.95999" id="4b34cdfe3d"><stop stop-opacity="1" stop-color="rgb(8.74176%, 21.821594%, 34.675598%)" offset="0"/><stop stop-opacity="1" stop-color="rgb(8.757019%, 21.914673%, 34.796143%)" offset="0.03125"/><stop stop-opacity="1" stop-color="rgb(8.790588%, 22.10083%, 35.037231%)" offset="0.0625"/><stop stop-opacity="1" stop-color="rgb(8.824158%, 22.288513%, 35.27832%)" offset="0.09375"/><stop stop-opacity="1" stop-color="rgb(8.856201%, 22.47467%, 35.519409%)" offset="0.125"/><stop stop-opacity="1" stop-color="rgb(8.889771%, 22.660828%, 35.762024%)" offset="0.15625"/><stop stop-opacity="1" stop-color="rgb(8.92334%, 22.848511%, 36.003113%)" offset="0.1875"/><stop stop-opacity="1" stop-color="rgb(8.955383%, 23.034668%, 36.244202%)" offset="0.21875"/><stop stop-opacity="1" stop-color="rgb(8.988953%, 23.222351%, 36.485291%)" offset="0.25"/><stop stop-opacity="1" stop-color="rgb(9.022522%, 23.408508%, 36.726379%)" offset="0.28125"/><stop stop-opacity="1" stop-color="rgb(9.054565%, 23.596191%, 36.968994%)" offset="0.3125"/><stop stop-opacity="1" stop-color="rgb(9.088135%, 23.782349%, 37.210083%)" offset="0.34375"/><stop stop-opacity="1" stop-color="rgb(9.121704%, 23.970032%, 37.451172%)" offset="0.375"/><stop stop-opacity="1" stop-color="rgb(9.153748%, 24.156189%, 37.692261%)" offset="0.40625"/><stop stop-opacity="1" stop-color="rgb(9.187317%, 24.342346%, 37.93335%)" offset="0.4375"/><stop stop-opacity="1" stop-color="rgb(9.220886%, 24.530029%, 38.175964%)" offset="0.46875"/><stop stop-opacity="1" stop-color="rgb(9.25293%, 24.716187%, 38.417053%)" offset="0.5"/><stop stop-opacity="1" stop-color="rgb(9.286499%, 24.90387%, 38.658142%)" offset="0.53125"/><stop stop-opacity="1" stop-color="rgb(9.320068%, 25.090027%, 38.899231%)" offset="0.5625"/><stop stop-opacity="1" stop-color="rgb(9.352112%, 25.27771%, 39.14032%)" offset="0.59375"/><stop stop-opacity="1" stop-color="rgb(9.385681%, 25.463867%, 39.382935%)" offset="0.625"/><stop stop-opacity="1" stop-color="rgb(9.41925%, 25.65155%, 39.624023%)" offset="0.65625"/><stop stop-opacity="1" stop-color="rgb(9.451294%, 25.837708%, 39.865112%)" offset="0.6875"/><stop stop-opacity="1" stop-color="rgb(9.484863%, 26.023865%, 40.106201%)" offset="0.71875"/><stop stop-opacity="1" stop-color="rgb(9.518433%, 26.211548%, 40.34729%)" offset="0.75"/><stop stop-opacity="1" stop-color="rgb(9.550476%, 26.397705%, 40.589905%)" offset="0.78125"/><stop stop-opacity="1" stop-color="rgb(9.584045%, 26.585388%, 40.830994%)" offset="0.8125"/><stop stop-opacity="1" stop-color="rgb(9.617615%, 26.771545%, 41.072083%)" offset="0.84375"/><stop stop-opacity="1" stop-color="rgb(9.649658%, 26.959229%, 41.313171%)" offset="0.875"/><stop stop-opacity="1" stop-color="rgb(9.683228%, 27.145386%, 41.55426%)" offset="0.90625"/><stop stop-opacity="1" stop-color="rgb(9.716797%, 27.333069%, 41.796875%)" offset="0.9375"/><stop stop-opacity="1" stop-color="rgb(9.74884%, 27.519226%, 42.037964%)" offset="0.96875"/><stop stop-opacity="1" stop-color="rgb(9.78241%, 27.705383%, 42.279053%)" offset="1"/></linearGradient></defs><rect x="-7.5" width="90" fill="#ffffff" y="-7.5" height="89.999996" fill-opacity="1"/><rect x="-7.5" width="90" fill="#000000" y="-7.5" height="89.999996" fill-opacity="1"/><path fill="#110033" d="M 6.992188 51.226562 L 6.992188 23.742188 C 6.992188 21.648438 8.386719 19.277344 10.335938 18.160156 L 35.265625 2.671875 L 35.265625 17.878906 L 20.78125 26.667969 C 19.390625 27.507812 18.554688 29.039062 18.554688 30.4375 L 18.554688 45.785156 C 18.554688 47.179688 19.25 48.574219 20.222656 49.132812 L 35.265625 58.0625 L 35.265625 72.152344 L 9.5 56.25 C 8.109375 55.273438 6.992188 53.179688 6.992188 51.226562 Z M 6.992188 51.226562 " fill-opacity="1" fill-rule="nonzero"/><path fill="#110033" d="M 39.445312 72.152344 L 39.445312 58.0625 L 54.488281 49.132812 C 55.460938 48.574219 56.160156 47.179688 56.160156 45.785156 L 56.160156 30.4375 C 56.160156 29.042969 55.320312 27.507812 53.929688 26.667969 L 39.445312 17.878906 L 39.445312 2.671875 L 64.378906 18.160156 C 66.328125 19.273438 67.71875 21.648438 67.71875 23.738281 L 67.71875 51.222656 C 67.71875 53.175781 66.605469 55.269531 65.210938 56.246094 Z M 39.445312 72.152344 " fill-opacity="1" fill-rule="nonzero"/><g clip-path="url(#54dce757c4)"><g clip-path="url(#5a1ca8536e)"><path fill="url(#d511c22e20)" d="M 6.992188 2.671875 L 6.992188 72.152344 L 35.265625 72.152344 L 35.265625 2.671875 Z M 6.992188 2.671875 " fill-rule="nonzero"/></g></g><g clip-path="url(#2cdb143a8c)"><g clip-path="url(#2468cf3d76)"><path fill="url(#4b34cdfe3d)" d="M 39.445312 2.671875 L 39.445312 72.152344 L 67.71875 72.152344 L 67.71875 2.671875 Z M 39.445312 2.671875 " fill-rule="nonzero"/></g></g></svg>