<svg xmlns="http://www.w3.org/2000/svg" xmlns:xlink="http://www.w3.org/1999/xlink" width="100" zoomAndPan="magnify" viewBox="0 0 75 74.999997" height="100" preserveAspectRatio="xMidYMid meet" version="1.0"><defs><clipPath id="20d1b756e1"><path d="M 2.699219 2.25 L 73.199219 2.25 L 73.199219 72.75 L 2.699219 72.75 Z M 2.699219 2.25 " clip-rule="nonzero"/></clipPath></defs><rect x="-7.5" width="90" fill="#ffffff" y="-7.5" height="89.999996" fill-opacity="1"/><rect x="-7.5" width="90" fill="#000000" y="-7.5" height="89.999996" fill-opacity="1"/><g clip-path="url(#20d1b756e1)"><path fill="#dd5533" d="M 73.199219 37.5 C 73.199219 36.34375 73.144531 35.195312 73.03125 34.042969 C 72.917969 32.894531 72.746094 31.753906 72.523438 30.625 C 72.296875 29.492188 72.015625 28.371094 71.683594 27.265625 C 71.347656 26.164062 70.957031 25.078125 70.515625 24.011719 C 70.074219 22.945312 69.582031 21.902344 69.039062 20.882812 C 68.492188 19.863281 67.902344 18.875 67.257812 17.917969 C 66.617188 16.957031 65.929688 16.03125 65.199219 15.136719 C 64.464844 14.246094 63.691406 13.390625 62.875 12.574219 C 62.058594 11.757812 61.203125 10.984375 60.3125 10.25 C 59.421875 9.519531 58.492188 8.832031 57.535156 8.191406 C 56.574219 7.550781 55.585938 6.957031 54.566406 6.414062 C 53.546875 5.867188 52.507812 5.375 51.441406 4.933594 C 50.371094 4.492188 49.289062 4.101562 48.183594 3.769531 C 47.078125 3.433594 45.960938 3.152344 44.828125 2.925781 C 43.695312 2.703125 42.554688 2.53125 41.40625 2.417969 C 40.257812 2.304688 39.105469 2.25 37.949219 2.25 C 36.796875 2.25 35.644531 2.304688 34.496094 2.417969 C 33.347656 2.53125 32.207031 2.703125 31.074219 2.925781 C 29.941406 3.152344 28.820312 3.433594 27.71875 3.769531 C 26.613281 4.101562 25.527344 4.492188 24.460938 4.933594 C 23.394531 5.375 22.351562 5.867188 21.332031 6.414062 C 20.316406 6.957031 19.324219 7.550781 18.367188 8.191406 C 17.40625 8.832031 16.480469 9.519531 15.585938 10.25 C 14.695312 10.984375 13.839844 11.757812 13.023438 12.574219 C 12.207031 13.390625 11.433594 14.246094 10.703125 15.136719 C 9.96875 16.03125 9.28125 16.957031 8.640625 17.917969 C 8 18.875 7.40625 19.863281 6.863281 20.882812 C 6.316406 21.902344 5.824219 22.945312 5.382812 24.011719 C 4.941406 25.078125 4.554688 26.164062 4.21875 27.265625 C 3.882812 28.371094 3.601562 29.492188 3.378906 30.625 C 3.152344 31.753906 2.984375 32.894531 2.871094 34.042969 C 2.757812 35.195312 2.699219 36.34375 2.699219 37.5 C 2.699219 38.65625 2.757812 39.804688 2.871094 40.957031 C 2.984375 42.105469 3.152344 43.246094 3.378906 44.375 C 3.601562 45.507812 3.882812 46.628906 4.21875 47.734375 C 4.554688 48.835938 4.941406 49.921875 5.382812 50.988281 C 5.824219 52.054688 6.316406 53.097656 6.863281 54.117188 C 7.40625 55.136719 8 56.125 8.640625 57.082031 C 9.28125 58.042969 9.96875 58.96875 10.703125 59.863281 C 11.433594 60.753906 12.207031 61.609375 13.023438 62.425781 C 13.839844 63.242188 14.695312 64.015625 15.585938 64.75 C 16.480469 65.480469 17.40625 66.167969 18.367188 66.808594 C 19.324219 67.449219 20.316406 68.042969 21.332031 68.585938 C 22.351562 69.132812 23.394531 69.625 24.460938 70.066406 C 25.527344 70.507812 26.613281 70.898438 27.71875 71.230469 C 28.820312 71.566406 29.941406 71.847656 31.074219 72.074219 C 32.207031 72.296875 33.347656 72.46875 34.496094 72.582031 C 35.644531 72.695312 36.796875 72.75 37.949219 72.75 C 39.105469 72.75 40.257812 72.695312 41.40625 72.582031 C 42.554688 72.46875 43.695312 72.296875 44.828125 72.074219 C 45.960938 71.847656 47.078125 71.566406 48.183594 71.230469 C 49.289062 70.898438 50.371094 70.507812 51.441406 70.066406 C 52.507812 69.625 53.546875 69.132812 54.566406 68.585938 C 55.585938 68.042969 56.574219 67.449219 57.535156 66.808594 C 58.492188 66.167969 59.421875 65.480469 60.3125 64.75 C 61.203125 64.015625 62.058594 63.242188 62.875 62.425781 C 63.691406 61.609375 64.464844 60.753906 65.199219 59.863281 C 65.929688 58.96875 66.617188 58.042969 67.257812 57.082031 C 67.902344 56.125 68.492188 55.136719 69.039062 54.117188 C 69.582031 53.097656 70.074219 52.054688 70.515625 50.988281 C 70.957031 49.921875 71.347656 48.835938 71.683594 47.734375 C 72.015625 46.628906 72.296875 45.507812 72.523438 44.375 C 72.746094 43.246094 72.917969 42.105469 73.03125 40.957031 C 73.144531 39.804688 73.199219 38.65625 73.199219 37.5 Z M 73.199219 37.5 " fill-opacity="1" fill-rule="nonzero"/></g><path fill="#ffffff" d="M 68.316406 37.5 C 68.316406 36.339844 68.25 35.183594 68.117188 34.03125 C 67.984375 32.878906 67.785156 31.734375 67.523438 30.605469 C 67.257812 29.476562 66.933594 28.363281 66.539062 27.273438 C 66.148438 26.179688 65.699219 25.113281 65.183594 24.074219 C 64.671875 23.03125 64.097656 22.023438 63.46875 21.046875 C 62.839844 20.074219 62.160156 19.136719 61.421875 18.242188 C 60.6875 17.34375 59.902344 16.492188 59.066406 15.683594 C 58.234375 14.878906 57.355469 14.121094 56.433594 13.414062 C 55.515625 12.707031 54.554688 12.058594 53.5625 11.460938 C 52.566406 10.863281 51.539062 10.328125 50.480469 9.847656 C 49.425781 9.371094 48.34375 8.953125 47.238281 8.597656 C 46.132812 8.242188 45.011719 7.953125 43.875 7.726562 C 42.738281 7.5 41.589844 7.339844 40.433594 7.246094 C 39.277344 7.148438 38.117188 7.121094 36.957031 7.160156 C 35.796875 7.199219 34.644531 7.300781 33.496094 7.472656 C 32.347656 7.644531 31.214844 7.878906 30.09375 8.179688 C 28.972656 8.480469 27.875 8.84375 26.792969 9.269531 C 25.714844 9.695312 24.664062 10.183594 23.640625 10.730469 C 22.617188 11.277344 21.628906 11.882812 20.675781 12.542969 C 19.71875 13.203125 18.808594 13.914062 17.933594 14.679688 C 17.0625 15.445312 16.234375 16.257812 15.457031 17.117188 C 14.679688 17.976562 13.949219 18.878906 13.273438 19.824219 C 12.597656 20.765625 11.980469 21.746094 11.414062 22.757812 C 10.851562 23.773438 10.347656 24.816406 9.902344 25.890625 C 9.460938 26.960938 9.078125 28.054688 8.761719 29.171875 C 8.441406 30.285156 8.1875 31.417969 8 32.5625 C 7.808594 33.707031 7.6875 34.859375 7.628906 36.019531 C 7.574219 37.175781 7.582031 38.335938 7.660156 39.492188 C 7.734375 40.652344 7.878906 41.800781 8.085938 42.941406 C 8.292969 44.085938 8.566406 45.210938 8.902344 46.320312 C 9.238281 47.429688 9.636719 48.519531 10.101562 49.582031 C 10.5625 50.648438 11.082031 51.683594 11.664062 52.6875 C 12.242188 53.691406 12.878906 54.660156 13.570312 55.59375 C 14.261719 56.527344 15.003906 57.414062 15.796875 58.261719 C 16.589844 59.109375 17.429688 59.90625 18.3125 60.660156 C 19.199219 61.410156 20.125 62.105469 21.089844 62.75 C 22.054688 63.394531 23.050781 63.984375 24.085938 64.511719 C 25.117188 65.042969 26.175781 65.511719 27.261719 65.921875 C 28.347656 66.332031 29.453125 66.675781 30.578125 66.957031 C 31.703125 67.238281 32.84375 67.457031 33.992188 67.609375 C 35.144531 67.757812 36.300781 67.84375 37.460938 67.863281 C 38.621094 67.882812 39.777344 67.835938 40.933594 67.722656 C 42.085938 67.605469 43.230469 67.429688 44.367188 67.183594 C 45.5 66.9375 46.617188 66.628906 47.714844 66.257812 C 48.8125 65.882812 49.886719 65.449219 50.9375 64.953125 C 51.988281 64.457031 53.003906 63.902344 53.988281 63.289062 C 54.972656 62.675781 55.921875 62.007812 56.832031 61.289062 C 57.738281 60.566406 58.605469 59.796875 59.425781 58.976562 C 60.835938 57.566406 62.097656 56.03125 63.207031 54.375 C 64.316406 52.71875 65.25 50.96875 66.015625 49.125 C 66.777344 47.28125 67.351562 45.382812 67.742188 43.425781 C 68.128906 41.46875 68.320312 39.496094 68.316406 37.5 Z M 60.789062 14.664062 C 61.226562 15.101562 61.648438 15.550781 62.058594 16.011719 C 62.46875 16.46875 62.867188 16.941406 63.25 17.425781 C 63.632812 17.90625 64.003906 18.402344 64.359375 18.90625 C 64.710938 19.410156 65.054688 19.925781 65.378906 20.449219 C 65.703125 20.972656 66.015625 21.503906 66.308594 22.046875 C 66.605469 22.585938 66.882812 23.136719 67.148438 23.695312 C 67.410156 24.25 67.660156 24.816406 67.890625 25.386719 C 68.121094 25.960938 68.335938 26.535156 68.535156 27.121094 C 68.734375 27.703125 68.914062 28.292969 69.078125 28.886719 C 69.242188 29.484375 69.390625 30.082031 69.519531 30.683594 C 69.648438 31.285156 69.761719 31.894531 69.859375 32.503906 C 69.953125 33.109375 70.03125 33.722656 70.09375 34.335938 C 70.152344 34.949219 70.195312 35.566406 70.21875 36.179688 C 70.246094 36.796875 70.253906 37.414062 70.242188 38.03125 C 70.234375 38.648438 70.207031 39.261719 70.160156 39.878906 C 70.113281 40.492188 70.050781 41.105469 69.972656 41.71875 C 69.890625 42.328125 69.792969 42.9375 69.675781 43.542969 C 69.5625 44.148438 69.429688 44.75 69.277344 45.347656 C 69.128906 45.945312 68.960938 46.539062 68.777344 47.128906 C 68.59375 47.71875 68.394531 48.300781 68.175781 48.878906 C 67.960938 49.453125 67.726562 50.023438 67.476562 50.589844 C 67.226562 51.152344 66.960938 51.707031 66.679688 52.257812 C 66.398438 52.804688 66.101562 53.34375 65.785156 53.878906 C 65.472656 54.410156 65.148438 54.929688 64.804688 55.445312 C 64.460938 55.957031 64.105469 56.457031 63.734375 56.949219 C 63.363281 57.441406 62.976562 57.925781 62.578125 58.394531 C 62.179688 58.863281 61.765625 59.324219 61.339844 59.769531 C 60.914062 60.214844 60.476562 60.648438 60.027344 61.070312 C 59.578125 61.492188 59.117188 61.902344 58.644531 62.296875 C 58.167969 62.691406 57.683594 63.074219 57.191406 63.441406 C 56.695312 63.808594 56.1875 64.160156 55.671875 64.5 C 55.15625 64.835938 54.632812 65.160156 54.097656 65.46875 C 53.566406 65.777344 53.023438 66.070312 52.472656 66.347656 C 51.921875 66.625 51.363281 66.886719 50.796875 67.132812 C 50.230469 67.375 49.660156 67.605469 49.078125 67.816406 C 48.5 68.03125 47.917969 68.226562 47.328125 68.40625 C 46.734375 68.582031 46.140625 68.746094 45.542969 68.890625 C 44.941406 69.035156 44.339844 69.164062 43.734375 69.273438 C 43.125 69.382812 42.515625 69.476562 41.90625 69.550781 C 41.292969 69.628906 40.679688 69.6875 40.0625 69.726562 C 39.449219 69.765625 38.832031 69.789062 38.214844 69.792969 C 37.597656 69.800781 36.984375 69.785156 36.367188 69.757812 C 35.75 69.726562 35.136719 69.679688 34.523438 69.613281 C 33.910156 69.546875 33.300781 69.464844 32.691406 69.363281 C 32.082031 69.261719 31.476562 69.144531 30.875 69.011719 C 30.273438 68.875 29.675781 68.722656 29.085938 68.554688 C 28.492188 68.382812 27.902344 68.199219 27.320312 67.996094 C 26.738281 67.792969 26.164062 67.574219 25.59375 67.335938 C 25.023438 67.101562 24.460938 66.847656 23.90625 66.582031 C 23.351562 66.3125 22.804688 66.027344 22.265625 65.730469 C 21.726562 65.429688 21.195312 65.113281 20.675781 64.785156 C 20.152344 64.453125 19.640625 64.109375 19.140625 63.75 C 18.640625 63.390625 18.148438 63.019531 17.667969 62.632812 C 17.191406 62.246094 16.722656 61.84375 16.265625 61.429688 C 15.808594 61.015625 15.363281 60.589844 14.929688 60.148438 C 14.496094 59.710938 14.078125 59.257812 13.671875 58.792969 C 13.265625 58.332031 12.871094 57.855469 12.492188 57.371094 C 12.113281 56.882812 11.746094 56.386719 11.398438 55.878906 C 11.046875 55.371094 10.710938 54.855469 10.386719 54.328125 C 10.066406 53.804688 9.761719 53.269531 9.46875 52.722656 C 9.179688 52.179688 8.90625 51.628906 8.644531 51.070312 C 8.386719 50.507812 8.144531 49.941406 7.917969 49.371094 C 7.691406 48.796875 7.480469 48.214844 7.289062 47.632812 C 7.09375 47.046875 6.917969 46.453125 6.757812 45.859375 C 6.597656 45.261719 6.457031 44.664062 6.332031 44.058594 C 6.203125 43.457031 6.097656 42.847656 6.007812 42.238281 C 5.917969 41.628906 5.84375 41.015625 5.789062 40.402344 C 5.730469 39.789062 5.695312 39.175781 5.675781 38.558594 C 5.652344 37.941406 5.652344 37.324219 5.667969 36.707031 C 5.683594 36.09375 5.714844 35.476562 5.765625 34.863281 C 5.816406 34.246094 5.882812 33.632812 5.96875 33.023438 C 6.054688 32.414062 6.15625 31.804688 6.277344 31.199219 C 6.398438 30.597656 6.535156 29.996094 6.691406 29.398438 C 6.84375 28.800781 7.015625 28.207031 7.203125 27.621094 C 7.394531 27.035156 7.597656 26.453125 7.820312 25.878906 C 8.042969 25.304688 8.28125 24.734375 8.535156 24.171875 C 8.789062 23.609375 9.058594 23.058594 9.347656 22.511719 C 9.632812 21.964844 9.933594 21.425781 10.25 20.898438 C 10.566406 20.367188 10.898438 19.851562 11.246094 19.339844 C 11.59375 18.828125 11.953125 18.332031 12.328125 17.839844 C 12.707031 17.351562 13.09375 16.875 13.496094 16.40625 C 13.898438 15.941406 14.316406 15.484375 14.746094 15.042969 C 15.171875 14.597656 15.613281 14.167969 16.066406 13.75 C 16.519531 13.332031 16.988281 12.925781 17.464844 12.535156 C 17.941406 12.144531 18.425781 11.769531 18.925781 11.40625 C 19.421875 11.042969 19.933594 10.691406 20.449219 10.359375 C 20.96875 10.023438 21.496094 9.707031 22.03125 9.402344 C 22.570312 9.097656 23.113281 8.808594 23.667969 8.535156 C 24.21875 8.261719 24.78125 8.007812 25.347656 7.765625 C 25.914062 7.523438 26.488281 7.300781 27.070312 7.09375 C 27.652344 6.886719 28.238281 6.695312 28.828125 6.519531 C 29.421875 6.347656 30.015625 6.1875 30.617188 6.046875 C 31.21875 5.910156 31.820312 5.785156 32.429688 5.679688 C 33.035156 5.574219 33.648438 5.488281 34.257812 5.417969 C 34.871094 5.347656 35.484375 5.292969 36.101562 5.257812 C 36.71875 5.222656 37.332031 5.203125 37.949219 5.203125 C 40.070312 5.203125 42.171875 5.40625 44.253906 5.820312 C 46.335938 6.230469 48.355469 6.84375 50.3125 7.65625 C 52.273438 8.46875 54.136719 9.464844 55.898438 10.644531 C 57.660156 11.824219 59.292969 13.164062 60.789062 14.664062 Z M 60.789062 14.664062 " fill-opacity="1" fill-rule="nonzero"/><path fill="#dddddd" d="M 27.507812 19.546875 C 17.714844 21.832031 21.304688 35.527344 21.304688 35.527344 L 27.507812 65.875 L 29.804688 66.859375 L 27.507812 19.53125 Z M 25.214844 13.671875 L 22.609375 13.671875 L 26.222656 14.980469 C 26.222656 14.980469 22.632812 14.980469 22.632812 17.277344 C 30.445312 16.9375 34.03125 18.886719 34.03125 18.886719 L 25.21875 13.667969 Z M 25.214844 13.671875 Z M 25.214844 13.671875 " fill-opacity="1" fill-rule="nonzero"/><path fill="#ffffff" d="M 46.109375 68.503906 C 46.109375 68.503906 38.269531 56.105469 38.269531 47.941406 C 38.269531 32.605469 48.386719 45.648438 48.386719 33.597656 C 48.386719 21.550781 38.269531 18.566406 38.269531 18.566406 C 33.378906 12.371094 23.929688 13.671875 23.929688 13.671875 L 26.222656 14.980469 C 26.222656 14.980469 23.929688 15.628906 23.285156 16.285156 C 22.644531 16.9375 29.488281 15.308594 32.425781 17.917969 C 20.324219 18.886719 22.28125 28.6875 22.28125 28.6875 L 29.136719 67.855469 Z M 46.109375 68.503906 Z M 46.109375 68.503906 " fill-opacity="1" fill-rule="nonzero"/><path fill="#ffcc00" d="M 46.109375 37.171875 L 58.511719 33.910156 C 69.609375 35.527344 49.046875 41.746094 47.742188 41.417969 C 37.949219 39.785156 40.859375 47.941406 52.636719 45.332031 C 64.417969 42.722656 55.574219 51.859375 44.804688 48.269531 C 29.464844 44.027344 37.621094 36.519531 46.109375 37.171875 Z M 46.109375 37.171875 " fill-opacity="1" fill-rule="nonzero"/><path fill="#66bb55" d="M 42.859375 62.957031 L 43.515625 61.980469 C 50.699219 64.589844 51.023438 65.566406 50.699219 59.042969 C 50.371094 52.519531 50.699219 52.515625 43.1875 58.0625 C 43.1875 56.433594 38.949219 57.082031 38.292969 58.0625 C 31.4375 55.125 30.785156 54.144531 31.109375 58.714844 C 31.765625 68.183594 31.4375 66.546875 37.96875 63.304688 L 42.859375 62.980469 Z M 42.859375 62.957031 Z M 42.859375 62.957031 " fill-opacity="1" fill-rule="nonzero"/><path fill="#44aa44" d="M 37.621094 59.371094 L 37.621094 63.285156 C 37.949219 63.9375 43.171875 63.9375 43.171875 62.628906 C 43.171875 61.320312 40.558594 63.609375 38.929688 62.957031 C 37.300781 62.300781 38.269531 58.714844 38.269531 58.714844 L 37.617188 59.371094 Z M 37.621094 59.371094 Z M 37.621094 59.371094 " fill-opacity="1" fill-rule="nonzero"/><path fill="#114488" d="M 30.445312 27.058594 C 28.808594 25.097656 24.570312 26.730469 25.546875 29.351562 C 25.871094 28.042969 28.15625 26.089844 30.445312 27.058594 Z M 40.886719 27.058594 C 41.214844 25.097656 44.480469 24.761719 45.476562 26.730469 C 44.738281 26.371094 43.957031 26.21875 43.136719 26.277344 C 42.316406 26.335938 41.566406 26.597656 40.886719 27.058594 Z M 30.117188 32.277344 C 30.144531 32.175781 30.195312 32.082031 30.265625 32.003906 C 30.339844 31.925781 30.425781 31.867188 30.523438 31.828125 C 30.625 31.792969 30.726562 31.78125 30.835938 31.792969 C 30.941406 31.808594 31.039062 31.84375 31.125 31.90625 C 31.214844 31.964844 31.28125 32.042969 31.332031 32.140625 C 31.382812 32.234375 31.40625 32.335938 31.40625 32.441406 C 31.40625 32.550781 31.382812 32.652344 31.332031 32.746094 C 31.28125 32.839844 31.214844 32.917969 31.125 32.980469 C 31.039062 33.039062 30.941406 33.078125 30.835938 33.089844 C 30.726562 33.105469 30.625 33.09375 30.523438 33.054688 C 30.425781 33.019531 30.339844 32.960938 30.265625 32.878906 C 30.195312 32.800781 30.144531 32.710938 30.117188 32.605469 Z M 27.507812 33.582031 C 27.523438 33.777344 27.5625 33.96875 27.625 34.15625 C 27.6875 34.339844 27.773438 34.515625 27.882812 34.679688 C 27.988281 34.84375 28.117188 34.992188 28.261719 35.125 C 28.410156 35.257812 28.570312 35.367188 28.746094 35.457031 C 28.921875 35.546875 29.105469 35.613281 29.296875 35.65625 C 29.488281 35.699219 29.683594 35.71875 29.878906 35.710938 C 30.074219 35.703125 30.269531 35.671875 30.457031 35.617188 C 30.644531 35.558594 30.824219 35.480469 30.992188 35.378906 C 31.160156 35.273438 31.3125 35.152344 31.449219 35.011719 C 31.585938 34.871094 31.703125 34.714844 31.796875 34.542969 C 31.894531 34.371094 31.96875 34.1875 32.015625 34 C 32.066406 33.808594 32.09375 33.613281 32.09375 33.417969 C 32.09375 33.222656 32.066406 33.027344 32.015625 32.835938 C 31.96875 32.648438 31.894531 32.464844 31.796875 32.292969 C 31.703125 32.121094 31.585938 31.964844 31.449219 31.824219 C 31.3125 31.683594 31.160156 31.5625 30.992188 31.457031 C 30.824219 31.355469 30.644531 31.277344 30.457031 31.21875 C 30.269531 31.164062 30.074219 31.132812 29.878906 31.125 C 29.683594 31.117188 29.488281 31.136719 29.296875 31.179688 C 29.105469 31.222656 28.921875 31.289062 28.746094 31.378906 C 28.570312 31.46875 28.410156 31.578125 28.261719 31.710938 C 28.117188 31.84375 27.988281 31.988281 27.882812 32.15625 C 27.773438 32.320312 27.6875 32.492188 27.625 32.679688 C 27.5625 32.867188 27.523438 33.058594 27.507812 33.253906 Z M 44.480469 31.285156 C 44.503906 31.183594 44.554688 31.089844 44.625 31.011719 C 44.699219 30.933594 44.785156 30.875 44.886719 30.835938 C 44.984375 30.800781 45.089844 30.789062 45.195312 30.800781 C 45.300781 30.816406 45.398438 30.851562 45.484375 30.914062 C 45.574219 30.972656 45.640625 31.050781 45.691406 31.148438 C 45.742188 31.242188 45.765625 31.34375 45.765625 31.449219 C 45.765625 31.558594 45.742188 31.65625 45.691406 31.753906 C 45.640625 31.847656 45.574219 31.925781 45.484375 31.988281 C 45.398438 32.046875 45.300781 32.085938 45.195312 32.097656 C 45.089844 32.113281 44.984375 32.101562 44.886719 32.0625 C 44.785156 32.027344 44.699219 31.96875 44.625 31.886719 C 44.554688 31.808594 44.503906 31.71875 44.480469 31.613281 Z M 42.515625 32.605469 C 42.53125 32.773438 42.566406 32.9375 42.621094 33.09375 C 42.675781 33.25 42.75 33.398438 42.84375 33.539062 C 42.9375 33.679688 43.046875 33.804688 43.175781 33.914062 C 43.300781 34.023438 43.4375 34.117188 43.585938 34.195312 C 43.738281 34.269531 43.894531 34.324219 44.058594 34.359375 C 44.222656 34.394531 44.386719 34.410156 44.554688 34.402344 C 44.722656 34.394531 44.886719 34.367188 45.046875 34.320312 C 45.207031 34.269531 45.355469 34.203125 45.5 34.113281 C 45.644531 34.027344 45.773438 33.921875 45.886719 33.800781 C 46.003906 33.679688 46.101562 33.546875 46.183594 33.398438 C 46.265625 33.253906 46.328125 33.097656 46.371094 32.9375 C 46.414062 32.773438 46.433594 32.609375 46.433594 32.441406 C 46.433594 32.273438 46.414062 32.109375 46.371094 31.949219 C 46.328125 31.785156 46.265625 31.632812 46.183594 31.484375 C 46.101562 31.339844 46.003906 31.207031 45.886719 31.085938 C 45.773438 30.964844 45.644531 30.859375 45.5 30.769531 C 45.355469 30.683594 45.207031 30.613281 45.046875 30.566406 C 44.886719 30.515625 44.722656 30.488281 44.554688 30.480469 C 44.386719 30.476562 44.222656 30.488281 44.058594 30.523438 C 43.894531 30.558594 43.738281 30.617188 43.585938 30.691406 C 43.4375 30.765625 43.300781 30.859375 43.175781 30.972656 C 43.046875 31.082031 42.9375 31.207031 42.84375 31.347656 C 42.75 31.484375 42.675781 31.632812 42.621094 31.792969 C 42.566406 31.949219 42.53125 32.113281 42.515625 32.277344 Z M 42.515625 32.605469 Z M 42.515625 32.605469 " fill-opacity="1" fill-rule="nonzero"/></svg>