<svg height="100" preserveAspectRatio="xMidYMid meet" viewBox="0 0 75 74.999997" width="100" xmlns="http://www.w3.org/2000/svg" zoomAndPan="magnify"><path d="m16.34375 3.621094 19.402344 17.875v-17.835938h3.777344v17.917969l19.488281-17.957031v20.382812h8.003906v29.398438h-7.980469v18.148437l-19.511718-17.144531v17.339844h-3.777344v-17.058594l-19.378906 17.070312v-18.355468h-8.003907v-29.398438h7.980469zm16.554688 24.113281h-20.757813v21.9375h4.21875v-6.921875zm-12.753907 16.671875v19.027344l15.601563-13.742188v-19.457031zm19.488281 5.101562v-19.292968l15.605469 14.171875v9.015625h.023438v9.835937zm19.402344.164063h4.203125v-21.9375h-20.605469l16.402344 14.859375zm-3.800781-25.667969v-11.800781l-12.804687 11.800781zm-22.304687 0h-12.808594v-11.800781zm0 0" fill="#fff" fill-rule="evenodd"/></svg>