<svg height="200" preserveAspectRatio="xMidYMid meet" viewBox="0 0 150 149.999998" width="200" xmlns="http://www.w3.org/2000/svg" zoomAndPan="magnify"><path d="m0 0h150v149.999998h-150z" fill="#fff"/><path d="m0 0h150v149.999998h-150z" fill="#0cc0df"/><path d="m60.515625-19.34375c0 2.65625.367187 4.789062 1.109375 6.390625.75 1.605469 1.742188 2.839844 2.984375 3.703125 1.25.855469 2.734375 1.421875 4.453125 1.703125 1.71875.273437 3.515625.40625 5.390625.40625h3.90625v7.140625h-52.875v-7.140625h3.90625c1.875 0 3.65625-.125 5.34375-.375s3.164063-.757813 4.4375-1.53125c1.28125-.769531 2.289063-1.914063 3.03125-3.4375.75-1.53125 1.125-3.539063 1.125-6.03125v-94.375h-16.265625c-2.492188 0-4.578125.375-6.265625 1.125-1.6875.742187-3.074219 1.75-4.15625 3.03125-1.074219 1.273437-1.875 2.75-2.40625 4.4375-.523437 1.6875-.898437 3.46875-1.125 5.34375l-.90625 7.3125h-8.796875l.828125-29.71875h95.703125l.828125 29.71875h-8.796875l-.828125-7.3125c-.21875-1.875-.605469-3.65625-1.15625-5.34375-.554687-1.6875-1.355469-3.164063-2.40625-4.4375-1.054687-1.28125-2.4375-2.289063-4.15625-3.03125-1.71875-.75-3.851563-1.125-6.390625-1.125h-16.515625zm0 0" transform="translate(22.912496 134.12157)"/></svg>