<svg version="1.1" id="Layer_1" xmlns="http://www.w3.org/2000/svg" xmlns:xlink="http://www.w3.org/1999/xlink" x="0px" y="0px"
	 width="100%" viewBox="0 0 1044 1083" enable-background="new 0 0 1044 1083" xml:space="preserve">
<path fill="#FFFFFF" opacity="1.000000" stroke="none" 
	d="
M609.000000,1084.000000 
	C406.023743,1084.000000 203.547455,1084.000000 1.035594,1084.000000 
	C1.035594,723.066040 1.035594,362.132080 1.035594,1.099049 
	C348.893158,1.099049 696.786377,1.099049 1044.839844,1.099049 
	C1044.839844,361.999939 1044.839844,722.999939 1044.839844,1084.000000 
	C899.798279,1084.000000 754.649109,1084.000000 609.000000,1084.000000 
M630.866699,650.575073 
	C630.824707,650.409180 630.782715,650.243286 631.173401,649.511597 
	C642.136963,631.772522 653.935181,614.486511 663.867371,596.187622 
	C678.540039,569.154724 688.095032,540.083435 693.641968,509.799377 
	C695.667786,498.738983 696.979736,487.547821 698.658508,476.137085 
	C696.896240,475.895050 695.942200,475.650085 694.988037,475.649445 
	C662.659912,475.627960 630.331543,475.678314 598.003845,475.557922 
	C594.508545,475.544922 594.035156,477.261841 593.585938,480.048737 
	C588.357056,512.483826 578.453430,543.347534 561.761841,571.780212 
	C535.651123,616.257507 497.723694,647.350586 450.756256,667.473877 
	C406.798706,686.307495 360.930145,692.064697 313.643311,684.019409 
	C256.014374,674.214600 208.287048,646.846191 170.624756,602.120789 
	C152.275864,580.330750 137.980713,556.093018 127.642159,529.519531 
	C126.968849,527.788879 125.231651,526.472168 124.035912,524.335999 
	C124.030640,523.917786 124.025360,523.499573 124.507462,522.440613 
	C124.137444,518.713318 124.179222,514.889709 123.333702,511.273621 
	C114.910866,475.250854 112.578629,439.022491 119.184776,402.436768 
	C126.875664,359.843597 144.797043,322.033020 172.901886,289.200317 
	C191.332718,267.669006 213.134445,250.108627 237.983032,236.332092 
	C272.492279,217.199448 309.464722,207.387238 348.851929,206.433273 
	C370.281616,205.914246 391.293762,208.969513 412.200623,213.391479 
	C420.423065,215.130585 428.007019,214.115158 434.684296,207.484726 
	C458.077667,184.255463 481.856232,161.413620 505.567108,138.505997 
	C506.826202,137.289536 508.806000,136.819016 510.450287,136.001236 
	C509.918091,135.331039 509.385864,134.660858 508.853668,133.990662 
	C497.353821,129.252640 486.031311,124.014778 474.323914,119.861877 
	C419.470215,100.403946 363.185608,93.960236 305.358398,101.845169 
	C268.726501,106.840065 233.781204,117.419304 200.706985,133.768585 
	C159.386826,154.194000 123.462578,181.732193 93.197189,216.690964 
	C70.448311,242.967590 52.032204,271.900482 38.028946,303.622589 
	C17.667645,349.747772 8.051948,398.273529 7.241961,448.532745 
	C6.673189,483.824738 11.427217,518.417847 23.066771,551.914185 
	C29.175793,569.494690 37.078754,586.187378 46.934731,602.247070 
	C51.483391,598.002075 55.777096,593.995056 59.992657,590.672729 
	C55.920105,595.252258 51.847557,599.831787 47.129436,605.137268 
	C56.018288,619.238464 64.370270,633.633179 73.829681,647.259094 
	C94.362175,676.835327 119.150223,702.432678 147.954025,724.125183 
	C170.735947,741.282532 195.344727,755.109558 221.654282,766.109192 
	C263.214325,783.484741 306.647980,791.624817 351.461212,791.588562 
	C370.647949,791.572998 389.907684,789.283020 409.000275,786.936523 
	C438.227844,783.344360 466.044586,774.211914 492.260254,761.093079 
	C513.631653,750.398438 534.079346,737.858826 554.950806,726.162659 
	C557.234924,724.882629 559.612915,723.770386 561.446167,723.210022 
	C558.251953,726.569580 561.976807,727.870483 563.542175,729.437195 
	C670.825989,836.817444 778.165466,944.142090 885.459045,1051.512451 
	C886.717346,1052.771729 887.439514,1054.566406 888.390015,1056.076172 
	C914.655762,1031.673462 939.696289,1008.409119 964.830261,985.057861 
	C963.745300,983.879211 963.098267,983.129944 962.403503,982.428040 
	C929.242432,948.926025 896.186829,915.318848 862.889709,881.952576 
	C791.683899,810.598938 720.365234,739.357910 649.049927,668.113647 
	C643.196899,662.266418 637.017456,656.745789 630.866699,650.575073 
M875.063965,209.412125 
	C867.134277,201.350922 858.638489,193.766098 851.379761,185.140305 
	C828.488831,157.938461 810.729126,127.604004 799.004089,93.998528 
	C792.309509,74.810959 786.677734,55.252541 780.815735,36.649029 
	C780.739136,36.878536 780.160217,38.244450 779.826111,39.667831 
	C771.166199,76.568161 758.679749,111.954285 739.402222,144.813049 
	C722.658813,173.352554 701.742737,198.285599 676.239807,219.281479 
	C657.036316,235.091202 635.950989,247.982590 613.313293,258.380127 
	C589.714050,269.219330 565.299866,277.538696 539.967957,283.218140 
	C534.855774,284.364349 529.792542,285.729218 524.706665,286.993256 
	C590.183472,296.241516 646.620850,323.394440 693.844116,368.984131 
	C741.196838,414.698761 769.391907,470.878815 781.373291,535.476685 
	C781.882446,534.689758 782.047668,534.051758 782.179810,533.407043 
	C789.532837,497.541840 800.963074,463.152802 819.556335,431.426849 
	C835.640747,403.981842 856.158447,380.235077 879.830017,359.026520 
	C912.983704,329.322418 950.632446,308.113556 993.858215,297.012543 
	C1006.799438,293.689026 1019.680115,290.129791 1032.588501,286.678558 
	C974.282837,272.984558 920.285034,250.985321 875.063965,209.412125 
z"/>
<path fill="#FFB524" opacity="1.000000" stroke="none" 
	d="
M123.989319,524.962891 
	C125.231651,526.472168 126.968849,527.788879 127.642159,529.519531 
	C137.980713,556.093018 152.275864,580.330750 170.624756,602.120789 
	C208.287048,646.846191 256.014374,674.214600 313.643311,684.019409 
	C360.930145,692.064697 406.798706,686.307495 450.756256,667.473877 
	C497.723694,647.350586 535.651123,616.257507 561.761841,571.780212 
	C578.453430,543.347534 588.357056,512.483826 593.585938,480.048737 
	C594.035156,477.261841 594.508545,475.544922 598.003845,475.557922 
	C630.331543,475.678314 662.659912,475.627960 694.988037,475.649445 
	C695.942200,475.650085 696.896240,475.895050 698.658508,476.137085 
	C696.979736,487.547821 695.667786,498.738983 693.641968,509.799377 
	C688.095032,540.083435 678.540039,569.154724 663.867371,596.187622 
	C653.935181,614.486511 642.136963,631.772522 630.706299,649.893799 
	C629.841675,650.874573 629.444214,651.473267 629.020630,652.041931 
	C628.994507,652.011902 629.062805,652.052246 628.796265,652.099609 
	C628.370544,652.452271 628.211365,652.757568 628.026123,653.031433 
	C628.000000,653.000000 628.062805,653.052246 627.796265,653.099609 
	C627.370544,653.452332 627.211365,653.757568 627.028320,654.031616 
	C627.004395,654.000366 627.070618,654.043152 626.759949,654.136597 
	C626.282043,654.815491 626.114807,655.401062 625.973145,655.994202 
	C625.998840,656.001831 625.984741,655.950256 625.634827,655.922607 
	C621.501343,659.926147 617.717773,663.957275 613.964966,667.994202 
	C613.995728,668.000000 613.983337,667.938538 613.708862,667.989258 
	C613.269165,668.354553 613.103821,668.669128 612.968323,668.990845 
	C612.998108,668.997986 612.983337,668.938538 612.708923,668.989258 
	C612.269165,669.354614 612.103882,669.669128 611.968384,669.990845 
	C611.998108,669.997986 611.983337,669.938538 611.708862,669.989258 
	C611.269165,670.354553 611.103821,670.669128 610.968323,670.990845 
	C610.998108,670.997986 610.983337,670.938538 610.708862,670.989258 
	C610.269104,671.354553 610.103760,671.669067 609.968262,671.990784 
	C609.998108,671.997986 609.983337,671.938538 609.708862,671.989258 
	C609.269104,672.354553 609.103821,672.669128 608.968323,672.990845 
	C608.998108,672.997986 608.983337,672.938538 608.708862,672.989258 
	C608.269104,673.354553 608.103821,673.669128 607.968323,673.990845 
	C607.998108,673.997986 607.983337,673.938538 607.708862,673.989258 
	C607.269104,674.354553 607.103821,674.669128 606.968384,674.990784 
	C606.998230,674.997925 606.984253,674.938171 606.723206,674.984985 
	C606.282166,675.328064 606.102173,675.624207 605.699585,676.166138 
	C598.094788,683.998291 590.703064,691.575378 583.333313,699.173828 
	C577.243164,705.453003 571.179016,711.757385 564.794617,718.042297 
	C564.330750,718.383484 564.175598,718.732910 564.015991,719.047058 
	C564.011597,719.011780 564.082031,719.021362 563.775940,719.029175 
	C563.320374,719.385254 563.170837,719.733643 563.015259,720.045044 
	C563.009155,720.008057 563.083618,719.999512 562.643921,720.142944 
	C562.122131,721.036987 562.040039,721.787598 561.960205,722.567139 
	C561.962402,722.595947 561.947327,722.580322 561.947327,722.580322 
	C559.612915,723.770386 557.234924,724.882629 554.950806,726.162659 
	C534.079346,737.858826 513.631653,750.398438 492.260254,761.093079 
	C466.044586,774.211914 438.227844,783.344360 409.000275,786.936523 
	C389.907684,789.283020 370.647949,791.572998 351.461212,791.588562 
	C306.647980,791.624817 263.214325,783.484741 221.654282,766.109192 
	C195.344727,755.109558 170.735947,741.282532 147.954025,724.125183 
	C119.150223,702.432678 94.362175,676.835327 73.829681,647.259094 
	C64.370270,633.633179 56.018288,619.238464 47.129436,605.137268 
	C51.847557,599.831787 55.920105,595.252258 60.008034,590.352234 
	C60.023415,590.031738 59.961964,590.011963 60.291676,589.932983 
	C61.405598,588.886108 62.189808,587.918152 62.988136,586.973633 
	C63.002251,586.997131 62.951050,586.977966 63.224983,586.934448 
	C63.658615,586.577637 63.818306,586.264343 63.988777,585.975769 
	C63.999557,586.000549 63.947620,585.985474 64.262787,585.889282 
	C64.726120,585.187134 64.874283,584.581116 65.020569,583.996643 
	C65.018677,584.018188 64.975754,584.023804 65.327812,584.050415 
	C68.795357,580.659790 71.910843,577.242676 75.150253,573.552734 
	C76.165771,572.490845 77.057358,571.701782 78.202301,570.899780 
	C78.870216,570.649536 79.284782,570.412170 79.823204,569.836243 
	C84.283356,564.985901 88.619644,560.474121 93.198532,555.873535 
	C93.630569,555.504944 93.820015,555.225159 94.009506,554.977539 
	C94.009567,555.009644 93.945328,555.009644 94.187965,554.906494 
	C94.623619,554.517334 94.816635,554.231323 95.009636,553.977539 
	C95.009621,554.009705 94.945328,554.009644 95.187965,553.906494 
	C95.623619,553.517334 95.816635,553.231384 96.009636,552.977539 
	C96.009621,553.009705 95.945328,553.009644 96.187973,552.906494 
	C96.623627,552.517334 96.816643,552.231384 97.009644,551.977539 
	C97.009621,552.009705 96.945328,552.009644 97.187973,551.906494 
	C97.623627,551.517334 97.816643,551.231384 98.009644,550.977539 
	C98.009621,551.009705 97.945328,551.009644 98.187973,550.906494 
	C98.623627,550.517334 98.816643,550.231384 99.009644,549.977539 
	C99.009621,550.009705 98.945328,550.009644 99.187973,549.906494 
	C99.623627,549.517334 99.816643,549.231384 100.009644,548.977539 
	C100.009621,549.009705 99.945328,549.009644 100.187973,548.906494 
	C100.623634,548.517334 100.816650,548.231384 101.009323,547.977905 
	C101.008987,548.010376 100.943993,548.010315 101.252708,547.877197 
	C105.378281,543.484741 109.195137,539.225281 113.014160,534.988892 
	C113.016319,535.011841 112.970589,535.018372 113.278442,535.018188 
	C113.725189,534.666687 113.864067,534.315308 114.005241,533.985718 
	C114.007530,534.007507 113.963890,534.003113 114.271805,534.009399 
	C114.720863,533.665039 114.861992,533.314514 115.005325,532.985718 
	C115.007538,533.007568 114.963890,533.003113 115.271828,533.009399 
	C115.720894,532.665039 115.862022,532.314514 116.005348,531.985718 
	C116.007538,532.007568 115.963890,532.003113 116.271820,532.009399 
	C116.720871,531.665039 116.862000,531.314514 117.005363,530.985718 
	C117.007591,531.007568 116.963905,531.003174 117.270683,531.008850 
	C117.712975,530.664856 117.848488,530.315186 117.990822,529.984253 
	C117.997650,530.002930 117.966667,529.977417 118.305763,530.085876 
	C120.426346,528.450500 122.207832,526.706726 123.989319,524.962891 
z"/>
<path fill="#F23F34" opacity="1.000000" stroke="none" 
	d="
M92.955948,555.962341 
	C88.619644,560.474121 84.283356,564.985901 79.574448,569.838135 
	C78.784203,570.423279 78.366585,570.667969 77.948959,570.912659 
	C77.057358,571.701782 76.165771,572.490845 74.871246,573.753418 
	C71.304131,577.492554 68.139946,580.758179 64.975754,584.023804 
	C64.975754,584.023804 65.018677,584.018188 64.739136,584.157837 
	C64.288940,584.860107 64.118279,585.422791 63.947620,585.985474 
	C63.947620,585.985474 63.999557,586.000549 63.662930,585.930664 
	C63.201214,586.233215 63.076126,586.605591 62.951042,586.977966 
	C62.951050,586.977966 63.002251,586.997131 62.650642,586.893127 
	C61.520008,587.863403 60.740978,588.937683 59.961956,590.011963 
	C59.961964,590.011963 60.023415,590.031738 60.047108,590.009888 
	C55.777096,593.995056 51.483391,598.002075 46.934731,602.247070 
	C37.078754,586.187378 29.175793,569.494690 23.066771,551.914185 
	C11.427217,518.417847 6.673189,483.824738 7.241961,448.532745 
	C8.051948,398.273529 17.667645,349.747772 38.028946,303.622589 
	C52.032204,271.900482 70.448311,242.967590 93.197189,216.690964 
	C123.462578,181.732193 159.386826,154.194000 200.706985,133.768585 
	C233.781204,117.419304 268.726501,106.840065 305.358398,101.845169 
	C363.185608,93.960236 419.470215,100.403946 474.323914,119.861877 
	C486.031311,124.014778 497.353821,129.252640 508.853668,133.990662 
	C509.385864,134.660858 509.918091,135.331039 510.450287,136.001236 
	C508.806000,136.819016 506.826202,137.289536 505.567108,138.505997 
	C481.856232,161.413620 458.077667,184.255463 434.684296,207.484726 
	C428.007019,214.115158 420.423065,215.130585 412.200623,213.391479 
	C391.293762,208.969513 370.281616,205.914246 348.851929,206.433273 
	C309.464722,207.387238 272.492279,217.199448 237.983032,236.332092 
	C213.134445,250.108627 191.332718,267.669006 172.901886,289.200317 
	C144.797043,322.033020 126.875664,359.843597 119.184776,402.436768 
	C112.578629,439.022491 114.910866,475.250854 123.333702,511.273621 
	C124.179222,514.889709 124.137444,518.713318 123.958008,522.882019 
	C121.594589,525.541443 119.780624,527.759399 117.966660,529.977417 
	C117.966667,529.977417 117.997650,530.002930 117.725441,530.042847 
	C117.290123,530.389526 117.127022,530.696350 116.963913,531.003174 
	C116.963905,531.003174 117.007591,531.007568 116.736771,531.042603 
	C116.298599,531.386169 116.131248,531.694641 115.963898,532.003113 
	C115.963890,532.003113 116.007538,532.007568 115.736725,532.042603 
	C115.298569,532.386169 115.131218,532.694641 114.963882,533.003113 
	C114.963890,533.003113 115.007538,533.007568 114.736740,533.042603 
	C114.298592,533.386169 114.131248,533.694641 113.963898,534.003113 
	C113.963890,534.003113 114.007530,534.007507 113.735275,534.044617 
	C113.298866,534.393921 113.134720,534.706177 112.970581,535.018372 
	C112.970589,535.018372 113.016319,535.011841 112.721359,535.149414 
	C108.598930,539.528137 104.771446,543.769226 100.943985,548.010315 
	C100.943993,548.010315 101.008987,548.010376 100.725067,548.022461 
	C100.275864,548.359619 100.110596,548.684631 99.945328,549.009644 
	C99.945328,549.009644 100.009621,549.009705 99.725388,549.022156 
	C99.275879,549.359619 99.110611,549.684631 98.945328,550.009644 
	C98.945328,550.009644 99.009621,550.009705 98.725388,550.022156 
	C98.275871,550.359619 98.110596,550.684631 97.945328,551.009644 
	C97.945328,551.009644 98.009621,551.009705 97.725372,551.022156 
	C97.275856,551.359619 97.110588,551.684631 96.945320,552.009644 
	C96.945328,552.009644 97.009621,552.009705 96.725388,552.022156 
	C96.275871,552.359619 96.110603,552.684631 95.945328,553.009644 
	C95.945328,553.009644 96.009621,553.009705 95.725372,553.022156 
	C95.275864,553.359619 95.110588,553.684631 94.945320,554.009644 
	C94.945328,554.009644 95.009621,554.009705 94.725388,554.022156 
	C94.275879,554.359619 94.110603,554.684631 93.945328,555.009644 
	C93.945328,555.009644 94.009567,555.009644 93.741798,555.021362 
	C93.301338,555.342773 93.128639,555.652588 92.955948,555.962341 
z"/>
<path fill="#2579EF" opacity="1.000000" stroke="none" 
	d="
M875.324707,209.655426 
	C920.285034,250.985321 974.282837,272.984558 1032.588501,286.678558 
	C1019.680115,290.129791 1006.799438,293.689026 993.858215,297.012543 
	C950.632446,308.113556 912.983704,329.322418 879.830017,359.026520 
	C856.158447,380.235077 835.640747,403.981842 819.556335,431.426849 
	C800.963074,463.152802 789.532837,497.541840 782.179810,533.407043 
	C782.047668,534.051758 781.882446,534.689758 781.373291,535.476685 
	C769.391907,470.878815 741.196838,414.698761 693.844116,368.984131 
	C646.620850,323.394440 590.183472,296.241516 524.706665,286.993256 
	C529.792542,285.729218 534.855774,284.364349 539.967957,283.218140 
	C565.299866,277.538696 589.714050,269.219330 613.313293,258.380127 
	C635.950989,247.982590 657.036316,235.091202 676.239807,219.281479 
	C701.742737,198.285599 722.658813,173.352554 739.402222,144.813049 
	C758.679749,111.954285 771.166199,76.568161 779.826111,39.667831 
	C780.160217,38.244450 780.739136,36.878536 780.815735,36.649029 
	C786.677734,55.252541 792.309509,74.810959 799.004089,93.998528 
	C810.729126,127.604004 828.488831,157.938461 851.379761,185.140305 
	C858.638489,193.766098 867.134277,201.350922 875.324707,209.655426 
z"/>
<path fill="#189F4E" opacity="1.000000" stroke="none" 
	d="
M565.103333,718.050537 
	C571.179016,711.757385 577.243164,705.453003 583.333313,699.173828 
	C590.703064,691.575378 598.094788,683.998291 605.950073,676.096313 
	C606.610168,675.499817 606.797180,675.218994 606.984253,674.938171 
	C606.984253,674.938171 606.998230,674.997925 607.214600,674.899841 
	C607.615112,674.514038 607.799255,674.226318 607.983398,673.938538 
	C607.983337,673.938538 607.998108,673.997986 608.214478,673.899902 
	C608.615051,673.514038 608.799194,673.226318 608.983337,672.938538 
	C608.983337,672.938538 608.998108,672.997986 609.214478,672.899902 
	C609.615051,672.514038 609.799194,672.226257 609.983337,671.938538 
	C609.983337,671.938538 609.998108,671.997986 610.214478,671.899902 
	C610.615051,671.514038 610.799194,671.226257 610.983337,670.938538 
	C610.983337,670.938538 610.998108,670.997986 611.214539,670.899902 
	C611.615112,670.514038 611.799255,670.226318 611.983398,669.938538 
	C611.983337,669.938538 611.998108,669.997986 612.214478,669.899902 
	C612.615051,669.514038 612.799194,669.226257 612.983337,668.938538 
	C612.983337,668.938538 612.998108,668.997986 613.214478,668.899902 
	C613.615051,668.514038 613.799194,668.226257 613.983337,667.938538 
	C613.983337,667.938538 613.995728,668.000000 614.271851,667.858032 
	C618.360229,663.794128 622.172485,659.872192 625.984741,655.950256 
	C625.984741,655.950256 625.998840,656.001831 626.267700,655.852783 
	C626.714600,655.150208 626.892639,654.596680 627.070618,654.043152 
	C627.070618,654.043152 627.004395,654.000366 627.360596,654.098450 
	C627.832153,653.815125 627.947510,653.433655 628.062805,653.052246 
	C628.062805,653.052246 628.000000,653.000000 628.358398,653.098267 
	C628.832153,652.815125 628.947449,652.433655 629.062744,652.052246 
	C629.062805,652.052246 628.994507,652.011902 629.311646,652.170532 
	C630.082397,651.910583 630.536072,651.492004 630.989746,651.073486 
	C637.017456,656.745789 643.196899,662.266418 649.049927,668.113647 
	C720.365234,739.357910 791.683899,810.598938 862.889709,881.952576 
	C896.186829,915.318848 929.242432,948.926025 962.403503,982.428040 
	C963.098267,983.129944 963.745300,983.879211 964.830261,985.057861 
	C939.696289,1008.409119 914.655762,1031.673462 888.390015,1056.076172 
	C887.439514,1054.566406 886.717346,1052.771729 885.459045,1051.512451 
	C778.165466,944.142090 670.825989,836.817444 563.542175,729.437195 
	C561.976807,727.870483 558.251953,726.569580 561.696777,722.895142 
	C561.947327,722.580322 561.962402,722.595947 562.267517,722.325928 
	C562.742920,721.370422 562.913269,720.684937 563.083618,719.999512 
	C563.083618,719.999512 563.009155,720.008057 563.379150,720.145752 
	C563.860107,719.862732 563.971069,719.442017 564.082031,719.021362 
	C564.082031,719.021362 564.011597,719.011780 564.331177,719.140747 
	C564.801575,718.863281 564.952454,718.456909 565.103333,718.050537 
z"/>
<path fill="#FDCDA7" opacity="1.000000" stroke="none" 
	d="
M118.305756,530.085876 
	C119.780624,527.759399 121.594589,525.541443 123.714325,523.202393 
	C124.025360,523.499573 124.030640,523.917786 124.012619,524.649414 
	C122.207832,526.706726 120.426346,528.450500 118.305756,530.085876 
z"/>
<path fill="#C4D7A3" opacity="1.000000" stroke="none" 
	d="
M630.928223,650.824280 
	C630.536072,651.492004 630.082397,651.910583 629.337769,652.200562 
	C629.444214,651.473267 629.841675,650.874573 630.489990,650.176636 
	C630.782715,650.243286 630.824707,650.409180 630.928223,650.824280 
z"/>
<path fill="#FDCDA7" opacity="1.000000" stroke="none" 
	d="
M101.252701,547.877197 
	C104.771446,543.769226 108.598930,539.528137 112.719200,535.126465 
	C109.195137,539.225281 105.378281,543.484741 101.252701,547.877197 
z"/>
<path fill="#C4D7A3" opacity="1.000000" stroke="none" 
	d="
M625.634827,655.922607 
	C622.172485,659.872192 618.360229,663.794128 614.241089,667.852234 
	C617.717773,663.957275 621.501343,659.926147 625.634827,655.922607 
z"/>
<path fill="#FDCDA7" opacity="1.000000" stroke="none" 
	d="
M65.327820,584.050415 
	C68.139946,580.758179 71.304131,577.492554 74.747314,574.026245 
	C71.910843,577.242676 68.795357,580.659790 65.327820,584.050415 
z"/>
<path fill="#FDCDA7" opacity="1.000000" stroke="none" 
	d="
M60.291668,589.932983 
	C60.740978,588.937683 61.520008,587.863403 62.636528,586.869629 
	C62.189808,587.918152 61.405598,588.886108 60.291668,589.932983 
z"/>
<path fill="#C4D7A3" opacity="1.000000" stroke="none" 
	d="
M626.759949,654.136597 
	C626.892639,654.596680 626.714600,655.150208 626.242065,655.845154 
	C626.114807,655.401062 626.282043,654.815491 626.759949,654.136597 
z"/>
<path fill="#FFFFFF" opacity="1.000000" stroke="none" 
	d="
M562.643921,720.142944 
	C562.913269,720.684937 562.742920,721.370422 562.265259,722.297058 
	C562.040039,721.787598 562.122131,721.036987 562.643921,720.142944 
z"/>
<path fill="#FDCDA7" opacity="1.000000" stroke="none" 
	d="
M78.202309,570.899780 
	C78.366585,570.667969 78.784203,570.423279 79.450592,570.176636 
	C79.284782,570.412170 78.870216,570.649536 78.202309,570.899780 
z"/>
<path fill="#FDCDA7" opacity="1.000000" stroke="none" 
	d="
M64.262787,585.889282 
	C64.118279,585.422791 64.288940,584.860107 64.741028,584.136230 
	C64.874283,584.581116 64.726120,585.187134 64.262787,585.889282 
z"/>
<path fill="#C4D7A3" opacity="1.000000" stroke="none" 
	d="
M609.708862,671.989258 
	C609.799194,672.226257 609.615051,672.514038 609.184692,672.892700 
	C609.103821,672.669128 609.269104,672.354553 609.708862,671.989258 
z"/>
<path fill="#FDCDA7" opacity="1.000000" stroke="none" 
	d="
M115.271820,533.009399 
	C115.131218,532.694641 115.298569,532.386169 115.734543,532.020813 
	C115.862022,532.314514 115.720894,532.665039 115.271820,533.009399 
z"/>
<path fill="#C4D7A3" opacity="1.000000" stroke="none" 
	d="
M613.708862,667.989258 
	C613.799194,668.226257 613.615051,668.514038 613.184692,668.892700 
	C613.103821,668.669128 613.269165,668.354553 613.708862,667.989258 
z"/>
<path fill="#C4D7A3" opacity="1.000000" stroke="none" 
	d="
M612.708923,668.989258 
	C612.799194,669.226257 612.615051,669.514038 612.184753,669.892700 
	C612.103882,669.669128 612.269165,669.354614 612.708923,668.989258 
z"/>
<path fill="#C4D7A3" opacity="1.000000" stroke="none" 
	d="
M611.708923,669.989258 
	C611.799255,670.226318 611.615112,670.514038 611.184753,670.892700 
	C611.103821,670.669128 611.269165,670.354553 611.708923,669.989258 
z"/>
<path fill="#C4D7A3" opacity="1.000000" stroke="none" 
	d="
M610.708862,670.989258 
	C610.799194,671.226257 610.615051,671.514038 610.184692,671.892700 
	C610.103760,671.669067 610.269104,671.354553 610.708862,670.989258 
z"/>
<path fill="#C4D7A3" opacity="1.000000" stroke="none" 
	d="
M628.796265,652.099609 
	C628.947449,652.433655 628.832153,652.815125 628.384521,653.129700 
	C628.211365,652.757568 628.370544,652.452271 628.796265,652.099609 
z"/>
<path fill="#C4D7A3" opacity="1.000000" stroke="none" 
	d="
M608.708862,672.989258 
	C608.799194,673.226318 608.615051,673.514038 608.184692,673.892700 
	C608.103821,673.669128 608.269104,673.354553 608.708862,672.989258 
z"/>
<path fill="#C4D7A3" opacity="1.000000" stroke="none" 
	d="
M607.708923,673.989258 
	C607.799255,674.226318 607.615112,674.514038 607.184753,674.892700 
	C607.103821,674.669128 607.269104,674.354553 607.708923,673.989258 
z"/>
<path fill="#C4D7A3" opacity="1.000000" stroke="none" 
	d="
M606.723145,674.984985 
	C606.797180,675.218994 606.610168,675.499817 606.172729,675.850525 
	C606.102173,675.624207 606.282166,675.328064 606.723145,674.984985 
z"/>
<path fill="#FFFFFF" opacity="1.000000" stroke="none" 
	d="
M564.794617,718.042297 
	C564.952454,718.456909 564.801575,718.863281 564.335571,719.176025 
	C564.175598,718.732910 564.330750,718.383484 564.794617,718.042297 
z"/>
<path fill="#FFFFFF" opacity="1.000000" stroke="none" 
	d="
M563.775940,719.029175 
	C563.971069,719.442017 563.860107,719.862732 563.385254,720.182739 
	C563.170837,719.733643 563.320374,719.385254 563.775940,719.029175 
z"/>
<path fill="#FDCDA7" opacity="1.000000" stroke="none" 
	d="
M116.271820,532.009399 
	C116.131248,531.694641 116.298599,531.386169 116.734543,531.020813 
	C116.862000,531.314514 116.720871,531.665039 116.271820,532.009399 
z"/>
<path fill="#C4D7A3" opacity="1.000000" stroke="none" 
	d="
M627.796265,653.099609 
	C627.947510,653.433655 627.832153,653.815125 627.384521,654.129700 
	C627.211365,653.757568 627.370544,653.452332 627.796265,653.099609 
z"/>
<path fill="#FDCDA7" opacity="1.000000" stroke="none" 
	d="
M100.187973,548.906494 
	C100.110596,548.684631 100.275864,548.359619 100.725403,547.989990 
	C100.816650,548.231384 100.623634,548.517334 100.187973,548.906494 
z"/>
<path fill="#FDCDA7" opacity="1.000000" stroke="none" 
	d="
M114.271812,534.009399 
	C114.131248,533.694641 114.298592,533.386169 114.734528,533.020813 
	C114.861992,533.314514 114.720863,533.665039 114.271812,534.009399 
z"/>
<path fill="#FDCDA7" opacity="1.000000" stroke="none" 
	d="
M117.270691,531.008850 
	C117.127022,530.696350 117.290123,530.389526 117.718613,530.024109 
	C117.848488,530.315186 117.712975,530.664856 117.270691,531.008850 
z"/>
<path fill="#FDCDA7" opacity="1.000000" stroke="none" 
	d="
M63.224979,586.934448 
	C63.076126,586.605591 63.201214,586.233215 63.652149,585.905884 
	C63.818306,586.264343 63.658615,586.577637 63.224979,586.934448 
z"/>
<path fill="#FDCDA7" opacity="1.000000" stroke="none" 
	d="
M113.278442,535.018188 
	C113.134720,534.706177 113.298866,534.393921 113.732986,534.022827 
	C113.864067,534.315308 113.725189,534.666687 113.278442,535.018188 
z"/>
<path fill="#FDCDA7" opacity="1.000000" stroke="none" 
	d="
M93.198540,555.873535 
	C93.128639,555.652588 93.301338,555.342773 93.741745,554.989197 
	C93.820015,555.225159 93.630569,555.504944 93.198540,555.873535 
z"/>
<path fill="#FDCDA7" opacity="1.000000" stroke="none" 
	d="
M94.187965,554.906494 
	C94.110603,554.684631 94.275879,554.359619 94.725403,553.989990 
	C94.816635,554.231323 94.623619,554.517334 94.187965,554.906494 
z"/>
<path fill="#FDCDA7" opacity="1.000000" stroke="none" 
	d="
M95.187958,553.906494 
	C95.110588,553.684631 95.275864,553.359619 95.725388,552.989990 
	C95.816635,553.231384 95.623619,553.517334 95.187958,553.906494 
z"/>
<path fill="#FDCDA7" opacity="1.000000" stroke="none" 
	d="
M96.187973,552.906494 
	C96.110603,552.684631 96.275871,552.359619 96.725403,551.989990 
	C96.816643,552.231384 96.623627,552.517334 96.187973,552.906494 
z"/>
<path fill="#FDCDA7" opacity="1.000000" stroke="none" 
	d="
M97.187958,551.906494 
	C97.110588,551.684631 97.275856,551.359619 97.725395,550.989990 
	C97.816643,551.231384 97.623627,551.517334 97.187958,551.906494 
z"/>
<path fill="#FDCDA7" opacity="1.000000" stroke="none" 
	d="
M98.187973,550.906494 
	C98.110596,550.684631 98.275871,550.359619 98.725403,549.989990 
	C98.816643,550.231384 98.623627,550.517334 98.187973,550.906494 
z"/>
<path fill="#FDCDA7" opacity="1.000000" stroke="none" 
	d="
M99.187973,549.906494 
	C99.110611,549.684631 99.275879,549.359619 99.725403,548.989990 
	C99.816643,549.231384 99.623627,549.517334 99.187973,549.906494 
z"/>
</svg>