<svg height="200" preserveAspectRatio="xMidYMid meet" viewBox="0 0 150 149.999998" width="200" xmlns="http://www.w3.org/2000/svg" zoomAndPan="magnify"><path d="m0 0h150v149.999998h-150z" fill="#fff"/><path d="m0 0h150v149.999998h-150z" fill="#ff5757"/><path d="m15.8125 0c-1.136719 0-2.132812-.421875-2.984375-1.265625-.84375-.851563-1.265625-1.847656-1.265625-2.984375v-110.328125c0-1.25.394531-2.296875 1.1875-3.140625.789062-.851562 1.8125-1.28125 3.0625-1.28125h44.703125c16.78125 0 29.816406 3.996094 39.109375 11.984375 9.289062 7.992187 14.160156 19.464844 14.609375 34.421875.113281 3.292969.171875 7.65625.171875 13.09375s-.058594 9.746094-.171875 12.921875c-1.125 31.054687-18.746094 46.578125-52.859375 46.578125zm44.703125-25.5c7.144531 0 12.414063-1.695312 15.8125-5.09375 3.40625-3.40625 5.21875-8.847656 5.4375-16.328125.226563-3.28125.34375-7.53125.34375-12.75 0-5.207031-.117187-9.398437-.34375-12.578125-.21875-7.25-2.171875-12.601562-5.859375-16.0625-3.6875-3.457031-9.101562-5.1875-16.234375-5.1875h-16.15625v68zm0 0" transform="translate(13.884374 133.124994)"/></svg>