<svg height="100" preserveAspectRatio="xMidYMid meet" viewBox="0 0 75 74.999997" width="100" xmlns="http://www.w3.org/2000/svg" xmlns:xlink="http://www.w3.org/1999/xlink" zoomAndPan="magnify"><clipPath id="a"><path d="m2.699219 2.25h70.5v70.5h-70.5zm0 0"/></clipPath><path d="m-7.5-7.5h90v89.999996h-90z" fill="#fff"/><path d="m-7.5-7.5h90v89.999996h-90z" fill="#fff"/><g clip-path="url(#a)"><path d="m73.199219 37.5c0-1.15625-.054688-2.304688-.167969-3.457031-.113281-1.148438-.285156-2.289063-.507812-3.417969-.226563-1.132812-.507813-2.253906-.839844-3.359375-.335938-1.101563-.726563-2.1875-1.167969-3.253906-.441406-1.066407-.933594-2.109375-1.476563-3.128907-.546874-1.019531-1.136718-2.007812-1.78125-2.964843-.640624-.960938-1.328124-1.886719-2.058593-2.78125-.734375-.890625-1.507813-1.746094-2.324219-2.5625-.816406-.816407-1.671875-1.589844-2.5625-2.324219-.890625-.730469-1.820312-1.417969-2.777344-2.058594-.960937-.640625-1.949218-1.234375-2.96875-1.777344-1.019531-.546874-2.058594-1.039062-3.125-1.480468-1.070312-.441406-2.152344-.832032-3.257812-1.164063-1.105469-.335937-2.222656-.617187-3.355469-.84375-1.132813-.222656-2.273437-.394531-3.421875-.507812s-2.300781-.167969-3.457031-.167969c-1.152344 0-2.304688.054688-3.453125.167969-1.148438.113281-2.289063.285156-3.421875.507812-1.132813.226563-2.253907.507813-3.355469.84375-1.105469.332031-2.191406.722657-3.257812 1.164063-1.066407.441406-2.109376.933594-3.128907 1.480468-1.015625.542969-2.007812 1.136719-2.964843 1.777344-.960938.640625-1.886719 1.328125-2.78125 2.058594-.890626.734375-1.746094 1.507812-2.5625 2.324219-.816407.816406-1.589844 1.671875-2.320313 2.5625-.734375.894531-1.421875 1.820312-2.0625 2.78125-.640625.957031-1.234375 1.945312-1.777344 2.964843-.546875 1.019532-1.039062 2.0625-1.480469 3.128907-.441406 1.066406-.828124 2.152343-1.164062 3.253906-.335938 1.105469-.617188 2.226563-.839844 3.359375-.226562 1.128906-.394531 2.269531-.507812 3.417969-.113282 1.152343-.171875 2.300781-.171875 3.457031s.058593 2.304688.171875 3.457031c.113281 1.148438.28125 2.289063.507812 3.417969.222656 1.132812.503906 2.253906.839844 3.359375.335938 1.101563.722656 2.1875 1.164062 3.253906.441407 1.066407.933594 2.109375 1.480469 3.128907.542969 1.019531 1.136719 2.007812 1.777344 2.964843.640625.960938 1.328125 1.886719 2.0625 2.78125.730469.890625 1.503906 1.746094 2.320313 2.5625.816406.816407 1.671874 1.589844 2.5625 2.324219.894531.730469 1.820312 1.417969 2.78125 2.058594.957031.640625 1.949218 1.234375 2.964843 1.777344 1.019531.546874 2.0625 1.039062 3.128907 1.480468 1.066406.441406 2.152343.832032 3.257812 1.164063 1.101562.335937 2.222656.617187 3.355469.84375 1.132812.222656 2.273437.394531 3.421875.507812 1.148437.113281 2.300781.167969 3.453125.167969 1.15625 0 2.308593-.054688 3.457031-.167969s2.289062-.285156 3.421875-.507812c1.132813-.226563 2.25-.507813 3.355469-.84375 1.105468-.332031 2.1875-.722657 3.257812-1.164063 1.066406-.441406 2.105469-.933594 3.125-1.480468 1.019532-.542969 2.007813-1.136719 2.96875-1.777344.957032-.640625 1.886719-1.328125 2.777344-2.058594.890625-.734375 1.746094-1.507812 2.5625-2.324219.816406-.816406 1.589844-1.671875 2.324219-2.5625.730469-.894531 1.417969-1.820312 2.058593-2.78125.644532-.957031 1.234376-1.945312 1.78125-2.964843.542969-1.019532 1.035157-2.0625 1.476563-3.128907.441406-1.066406.832031-2.152343 1.167969-3.253906.332031-1.105469.613281-2.226563.839844-3.359375.222656-1.128906.394531-2.269531.507812-3.417969.113281-1.152343.167969-2.300781.167969-3.457031zm0 0" fill="#d53"/></g><path d="m68.316406 37.5c0-1.160156-.066406-2.316406-.199218-3.46875-.132813-1.152344-.332032-2.296875-.59375-3.425781-.265626-1.128907-.589844-2.242188-.984376-3.332031-.390624-1.09375-.839843-2.160157-1.355468-3.199219-.511719-1.042969-1.085938-2.050781-1.714844-3.027344-.628906-.972656-1.308594-1.910156-2.046875-2.804687-.734375-.898438-1.519531-1.75-2.355469-2.558594-.832031-.804688-1.710937-1.5625-2.632812-2.269532-.917969-.707031-1.878906-1.355468-2.871094-1.953124-.996094-.597657-2.023438-1.132813-3.082031-1.613282-1.054688-.476562-2.136719-.894531-3.242188-1.25-1.105469-.355468-2.226562-.644531-3.363281-.871094-1.136719-.226562-2.285156-.386718-3.441406-.480468-1.15625-.097656-2.316406-.125-3.476563-.085938-1.160156.039063-2.3125.140625-3.460937.3125-1.148438.171875-2.28125.40625-3.402344.707032-1.121094.300781-2.21875.664062-3.300781 1.089843-1.078125.425781-2.128907.914063-3.152344 1.460938s-2.011719 1.152343-2.964844 1.8125c-.957031.660156-1.867187 1.371093-2.742187 2.136719-.871094.765624-1.699219 1.578124-2.476563 2.4375-.777343.859374-1.507812 1.761718-2.183593 2.707031-.675782.941406-1.292969 1.921875-1.859376 2.933593-.5625 1.015626-1.066406 2.058594-1.511718 3.132813-.441406 1.070313-.824219 2.164063-1.140625 3.28125-.320313 1.113281-.574219 2.246094-.761719 3.390625-.191406 1.144531-.3125 2.296875-.371094 3.457031-.054687 1.15625-.046875 2.316407.03125 3.472657.074219 1.160156.21875 2.308593.425782 3.449218.207031 1.144532.480468 2.269532.816406 3.378906.335937 1.109376.734375 2.199219 1.199218 3.261719.460938 1.066407.980469 2.101563 1.5625 3.105469.578126 1.003906 1.214844 1.972656 1.90625 2.90625.691407.933594 1.433594 1.820312 2.226563 2.667969.792969.847656 1.632813 1.644531 2.515625 2.398437.886719.75 1.8125 1.445313 2.777344 2.089844s1.960937 1.234375 2.996094 1.761719c1.03125.53125 2.089843 1 3.175781 1.410156 1.085937.410156 2.191406.753906 3.316406 1.035156s2.265625.5 3.414063.652344c1.152343.148437 2.308593.234375 3.46875.253906 1.160156.019531 2.316406-.027343 3.472656-.140625 1.152344-.117187 2.296875-.292968 3.433594-.539062 1.132812-.246094 2.25-.554688 3.347656-.925782 1.097656-.375 2.171875-.808593 3.222656-1.304687s2.066406-1.050781 3.050781-1.664063c.984375-.613281 1.933594-1.28125 2.84375-2 .90625-.722656 1.773438-1.492187 2.59375-2.3125 1.410157-1.410156 2.671875-2.945312 3.78125-4.601562s2.042969-3.40625 2.808594-5.25c.761719-1.84375 1.335937-3.742188 1.726563-5.699219.386718-1.957031.578124-3.929687.574218-5.925781zm-7.527344-22.835938c.4375.4375.859376.886719 1.269532 1.347657.410156.457031.808594.929687 1.191406 1.414062.382812.480469.753906.976563 1.109375 1.480469.351563.503906.695313 1.019531 1.019531 1.542969.324219.523437.636719 1.054687.929688 1.597656.296875.539063.574218 1.089844.839844 1.648437.261718.554688.511718 1.121094.742187 1.691407.230469.574219.445313 1.148437.644531 1.734375.199219.582031.378906 1.171875.542969 1.765625.164063.597656.3125 1.195312.441406 1.796875.128907.601562.242188 1.210937.339844 1.820312.09375.605469.171875 1.21875.234375 1.832032.058594.613281.101562 1.230468.125 1.84375.027344.617187.035156 1.234374.023438 1.851562-.007813.617188-.035157 1.230469-.082032 1.847656-.046875.613282-.109375 1.226563-.1875 1.839844-.082031.609375-.179687 1.21875-.296875 1.824219-.113281.605469-.246093 1.207031-.398437 1.804687-.148438.597656-.316406 1.191406-.5 1.78125s-.382813 1.171875-.601563 1.75c-.214843.574219-.449219 1.144532-.699219 1.710938-.25.5625-.515624 1.117187-.796874 1.667968-.28125.546876-.578126 1.085938-.894532 1.621094-.3125.53125-.636718 1.050782-.980468 1.566406-.34375.511719-.699219 1.011719-1.070313 1.503907-.371094.492187-.757813.976562-1.15625 1.445312s-.8125.929688-1.238281 1.375c-.425782.445313-.863282.878907-1.3125 1.300781-.449219.421876-.910156.832032-1.382813 1.226563-.476562.394531-.960937.777344-1.453125 1.144531-.496094.367188-1.003906.71875-1.519531 1.058594-.515625.335938-1.039063.660156-1.574219.96875-.53125.308594-1.074218.601562-1.625.878906-.550781.277344-1.109375.539063-1.675781.785156-.566406.242188-1.136719.472657-1.71875.683594-.578125.214844-1.160156.410156-1.75.589844-.59375.175781-1.1875.339844-1.785156.484375-.601563.144531-1.203125.273437-1.808594.382813-.609375.109374-1.21875.203124-1.828125.277343-.613281.078125-1.226562.136719-1.84375.175781-.613281.039063-1.230469.0625-1.847656.066407-.617188.007812-1.230469-.007813-1.847656-.035157-.617188-.03125-1.230469-.078124-1.84375-.144531-.613282-.066406-1.222657-.148437-1.832032-.25-.609375-.101562-1.214844-.21875-1.816406-.351562-.601562-.136719-1.199219-.289063-1.789062-.457031-.59375-.171876-1.183594-.355469-1.765626-.558594-.582031-.203125-1.15625-.421875-1.726562-.660156-.570312-.234376-1.132812-.488282-1.6875-.753907-.554688-.269531-1.101562-.554687-1.640625-.851562-.539063-.300781-1.070313-.617188-1.589844-.945313-.523437-.332031-1.035156-.675781-1.535156-1.035156s-.992187-.730469-1.472656-1.117188c-.476563-.386718-.945313-.789062-1.402344-1.203124-.457031-.414063-.902344-.839844-1.335937-1.28125-.433594-.4375-.851563-.890626-1.257813-1.355469-.40625-.460938-.800781-.9375-1.179687-1.421875-.378907-.488282-.746094-.984375-1.09375-1.492188-.351563-.507812-.6875-1.023437-1.011719-1.550781-.320313-.523437-.625-1.058594-.917969-1.605469-.289062-.542968-.5625-1.09375-.824219-1.652344-.257812-.5625-.5-1.128906-.726562-1.699218-.226563-.574219-.4375-1.15625-.628907-1.738282-.195312-.585937-.371093-1.179687-.53125-1.773437-.160156-.597656-.300781-1.195313-.425781-1.800781-.128906-.601563-.234375-1.210938-.324219-1.820313-.089843-.609375-.164062-1.222656-.21875-1.835937-.058593-.613282-.09375-1.226563-.113281-1.84375-.023437-.617188-.023437-1.234375-.007812-1.851563.015625-.613281.046875-1.230469.097656-1.84375.050781-.617187.117187-1.230469.203125-1.839843.085938-.609376.1875-1.21875.308594-1.824219.121094-.601563.257812-1.203125.414062-1.800781.152344-.597657.324219-1.191407.511719-1.777344.191406-.585938.394531-1.167969.617187-1.742188.222657-.574218.460938-1.144531.714844-1.707031s.523438-1.113281.8125-1.660156c.285156-.546875.585938-1.085938.902344-1.613281.316406-.53125.648438-1.046876.996094-1.558594.347656-.511719.707031-1.007813 1.082031-1.5.378906-.488282.765625-.964844 1.167969-1.433594.402344-.464844.820312-.921875 1.25-1.363281.425781-.445313.867187-.875 1.320312-1.292969s.921875-.824219 1.398438-1.214844c.476562-.390625.960937-.765625 1.460937-1.128906.496094-.363281 1.007813-.714844 1.523438-1.046875.519531-.335937 1.046875-.652344 1.582031-.957031.539062-.304688 1.082031-.59375 1.636719-.867188.550781-.273437 1.113281-.527344 1.679687-.769531s1.140625-.464844 1.722656-.671875c.582032-.207031 1.167969-.398438 1.757813-.574219.59375-.171875 1.1875-.332031 1.789063-.472656.601562-.136719 1.203124-.261719 1.8125-.367187.605468-.105469 1.21875-.191407 1.828124-.261719.613282-.070313 1.226563-.125 1.84375-.160157.617188-.035156 1.230469-.054687 1.847657-.054687 2.121093 0 4.222656.203125 6.304687.617187 2.082032.410157 4.101563 1.023438 6.058594 1.835938 1.960938.8125 3.824219 1.808594 5.585938 2.988281 1.761718 1.179688 3.394531 2.519531 4.890624 4.019531zm0 0" fill="#fff"/><path d="m27.507812 19.546875c-9.792968 2.285156-6.203124 15.980469-6.203124 15.980469l6.203124 30.347656 2.296876.984375-2.296876-47.328125zm-2.292968-5.875h-2.605469l3.613281 1.308594s-3.589844 0-3.589844 2.296875c7.8125-.339844 11.398438 1.609375 11.398438 1.609375l-8.8125-5.21875zm0 0" fill="#ddd"/><path d="m46.109375 68.503906s-7.839844-12.398437-7.839844-20.5625c0-15.335937 10.117188-2.292968 10.117188-14.34375 0-12.046875-10.117188-15.03125-10.117188-15.03125-4.890625-6.195312-14.339843-4.894531-14.339843-4.894531l2.292968 1.308594s-2.292968.648437-2.9375 1.304687c-.640625.652344 6.203125-.976562 9.140625 1.632813-12.101562.96875-10.144531 10.769531-10.144531 10.769531l6.855469 39.167969zm0 0" fill="#fff"/><path d="m46.109375 37.171875 12.402344-3.261719c11.097656 1.617188-9.464844 7.835938-10.769531 7.507813-9.792969-1.632813-6.882813 6.523437 4.894531 3.914062 11.78125-2.609375 2.9375 6.527344-7.832031 2.9375-15.339844-4.242187-7.183594-11.75 1.304687-11.097656zm0 0" fill="#fc0"/><path d="m42.859375 62.957031.65625-.976562c7.183594 2.609375 7.507813 3.585937 7.183594-2.9375-.328125-6.523438 0-6.527344-7.511719-.980469 0-1.628906-4.238281-.980469-4.894531 0-6.855469-2.9375-7.507813-3.917969-7.183594.652344.65625 9.46875.328125 7.832031 6.859375 4.589844l4.890625-.324219zm0 0" fill="#6b5"/><path d="m37.621094 59.371094v3.914062c.328125.652344 5.550781.652344 5.550781-.65625s-2.613281.980469-4.242187.328125c-1.628907-.65625-.660157-4.242187-.660157-4.242187l-.652343.65625zm0 0" fill="#4a4"/><path d="m30.445312 27.058594c-1.636718-1.960938-5.875-.328125-4.898437 2.292968.324219-1.308593 2.609375-3.261718 4.898437-2.292968zm10.441407 0c.328125-1.960938 3.59375-2.296875 4.589843-.328125-.738281-.359375-1.519531-.511719-2.339843-.453125-.820313.058594-1.570313.320312-2.25.78125zm-10.769531 5.21875c.027343-.101563.078124-.195313.148437-.273438.074219-.078125.160156-.136718.257813-.175781.101562-.035156.203124-.046875.3125-.035156.105468.015625.203124.050781.289062.113281.089844.058594.15625.136719.207031.234375.050781.09375.074219.195313.074219.300781 0 .109375-.023438.210938-.074219.304688s-.117187.171875-.207031.234375c-.085938.058593-.183594.097656-.289062.109375-.109376.015625-.210938.003906-.3125-.035156-.097657-.035157-.183594-.09375-.257813-.175782-.070313-.078125-.121094-.167968-.148437-.273437zm-2.609376 1.304687c.015626.195313.054688.386719.117188.574219.0625.183594.148438.359375.257812.523438.105469.164062.234376.3125.378907.445312.148437.132812.308593.242188.484375.332031.175781.089844.359375.15625.550781.199219s.386719.0625.582031.054688c.195313-.007813.390625-.039063.578125-.09375.1875-.058594.367188-.136719.535157-.238282.167968-.105468.320312-.226562.457031-.367187s.253906-.296875.347656-.46875c.097656-.171875.171875-.355469.21875-.542969.050781-.191406.078125-.386719.078125-.582031 0-.195313-.027344-.390625-.078125-.582031-.046875-.1875-.121094-.371094-.21875-.542969-.09375-.171875-.210937-.328125-.347656-.46875s-.289063-.261719-.457031-.367188c-.167969-.101562-.347657-.179687-.535157-.238281-.1875-.054688-.382812-.085938-.578125-.09375-.195312-.007812-.390625.011719-.582031.054688-.191406.042968-.375.109374-.550781.199218-.175782.089844-.335938.199219-.484375.332032-.144531.132812-.273438.277343-.378907.445312-.109374.164062-.195312.335938-.257812.523438s-.101562.378906-.117188.574218zm16.972657-2.296875c.023437-.101562.074219-.195312.144531-.273437.074219-.078125.160156-.136719.261719-.175781.097656-.035157.203125-.046876.308593-.035157.105469.015625.203126.050781.289063.113281.089844.058594.15625.136719.207031.234376.050782.09375.074219.195312.074219.300781 0 .109375-.023437.207031-.074219.304687-.050781.09375-.117187.171875-.207031.234375-.085937.058594-.183594.097657-.289063.109375-.105468.015625-.210937.003906-.308593-.035156-.101563-.035156-.1875-.09375-.261719-.175781-.070312-.078125-.121094-.167969-.144531-.273438zm-1.964844 1.320313c.015625.167969.050781.332031.105469.488281.054687.15625.128906.304688.222656.445312.09375.140626.203125.265626.332031.375.125.109376.261719.203126.410157.28125.152343.074219.308593.128907.472656.164063.164062.035156.328125.050781.496094.042969.167968-.007813.332031-.035156.492187-.082032.160156-.050781.308594-.117187.453125-.207031.144531-.085937.273438-.191406.386719-.3125.117187-.121093.214843-.253906.296875-.402343.082031-.144532.144531-.300782.1875-.460938.042968-.164062.0625-.328125.0625-.496094 0-.167968-.019532-.332031-.0625-.492187-.042969-.164063-.105469-.316407-.1875-.464844-.082032-.144531-.179688-.277344-.296875-.398437-.113281-.121094-.242188-.226563-.386719-.316407-.144531-.085937-.292969-.15625-.453125-.203125-.160156-.050781-.324219-.078125-.492187-.085937-.167969-.003907-.332032.007812-.496094.042969-.164063.035156-.320313.09375-.472656.167968-.148438.074219-.285157.167969-.410157.28125-.128906.109375-.238281.234375-.332031.375-.09375.136719-.167969.285156-.222656.445313-.054688.15625-.089844.320312-.105469.484375zm0 0" fill="#148"/></svg>