<svg xmlns="http://www.w3.org/2000/svg" xmlns:xlink="http://www.w3.org/1999/xlink" width="100" zoomAndPan="magnify" viewBox="0 0 75 74.999997" height="100" preserveAspectRatio="xMidYMid meet" version="1.0"><defs><clipPath id="61d5163db4"><path d="M 3.5625 3.5625 L 71.8125 3.5625 L 71.8125 71.8125 L 3.5625 71.8125 Z M 3.5625 3.5625 " clip-rule="nonzero"/></clipPath></defs><rect x="-7.5" width="90" fill="#ffffff" y="-7.5" height="89.999996" fill-opacity="1"/><rect x="-7.5" width="90" fill="#000000" y="-7.5" height="89.999996" fill-opacity="1"/><g clip-path="url(#61d5163db4)"><path fill="#2197bd" d="M 71.8125 61.433594 C 71.8125 67.164062 67.167969 71.804688 61.441406 71.804688 L 13.9375 71.804688 C 8.207031 71.804688 3.566406 67.164062 3.566406 61.433594 L 3.566406 13.929688 C 3.566406 8.203125 8.207031 3.558594 13.9375 3.558594 L 61.441406 3.558594 C 67.167969 3.558594 71.8125 8.203125 71.8125 13.929688 Z M 71.8125 61.433594 " fill-opacity="1" fill-rule="nonzero"/></g><path fill="#ffffff" d="M 30.550781 27.90625 C 30.550781 28.242188 30.519531 28.574219 30.453125 28.902344 C 30.386719 29.230469 30.292969 29.550781 30.164062 29.859375 C 30.035156 30.167969 29.878906 30.460938 29.691406 30.738281 C 29.507812 31.019531 29.296875 31.277344 29.058594 31.511719 C 28.820312 31.75 28.5625 31.960938 28.285156 32.144531 C 28.007812 32.332031 27.714844 32.488281 27.40625 32.617188 C 27.09375 32.746094 26.777344 32.84375 26.449219 32.90625 C 26.121094 32.972656 25.789062 33.003906 25.453125 33.003906 C 25.117188 33.003906 24.785156 32.972656 24.457031 32.90625 C 24.128906 32.84375 23.8125 32.746094 23.503906 32.617188 C 23.191406 32.488281 22.898438 32.332031 22.621094 32.144531 C 22.34375 31.960938 22.085938 31.75 21.847656 31.511719 C 21.613281 31.277344 21.398438 31.019531 21.214844 30.738281 C 21.027344 30.460938 20.871094 30.167969 20.742188 29.859375 C 20.613281 29.550781 20.519531 29.230469 20.453125 28.902344 C 20.386719 28.574219 20.355469 28.242188 20.355469 27.90625 C 20.355469 27.574219 20.386719 27.242188 20.453125 26.914062 C 20.519531 26.585938 20.613281 26.265625 20.742188 25.957031 C 20.871094 25.648438 21.027344 25.351562 21.214844 25.074219 C 21.398438 24.796875 21.613281 24.539062 21.847656 24.300781 C 22.085938 24.066406 22.34375 23.855469 22.621094 23.667969 C 22.898438 23.480469 23.191406 23.324219 23.503906 23.195312 C 23.8125 23.070312 24.128906 22.972656 24.457031 22.90625 C 24.785156 22.839844 25.117188 22.808594 25.453125 22.808594 C 25.789062 22.808594 26.121094 22.839844 26.449219 22.90625 C 26.777344 22.972656 27.09375 23.070312 27.40625 23.195312 C 27.714844 23.324219 28.007812 23.480469 28.285156 23.667969 C 28.5625 23.855469 28.820312 24.066406 29.058594 24.300781 C 29.296875 24.539062 29.507812 24.796875 29.691406 25.074219 C 29.878906 25.351562 30.035156 25.648438 30.164062 25.957031 C 30.292969 26.265625 30.386719 26.585938 30.453125 26.914062 C 30.519531 27.242188 30.550781 27.574219 30.550781 27.90625 Z M 30.550781 27.90625 " fill-opacity="1" fill-rule="nonzero"/><path fill="#ffffff" d="M 21.058594 36.765625 L 29.816406 36.765625 L 29.816406 64.941406 L 21.058594 64.941406 Z M 21.058594 36.765625 " fill-opacity="1" fill-rule="nonzero"/><path fill="#ffffff" d="M 35.324219 36.765625 L 43.664062 36.765625 L 43.664062 64.941406 L 35.324219 64.941406 Z M 35.324219 36.765625 " fill-opacity="1" fill-rule="nonzero"/><path fill="#ffffff" d="M 35.6875 51.765625 L 44.023438 51.765625 L 44.023438 64.941406 L 35.6875 64.941406 Z M 35.6875 51.765625 " fill-opacity="1" fill-rule="nonzero"/><path fill="#ffffff" d="M 44.023438 51.765625 C 44.023438 51.765625 43.890625 48.113281 44.855469 46.210938 C 44.855469 46.210938 45.820312 43.871094 48.847656 43.855469 C 48.847656 43.855469 52.402344 43.238281 53.421875 46.761719 C 53.421875 46.761719 53.808594 48.71875 53.808594 49.542969 C 53.808594 50.371094 53.835938 64.941406 53.835938 64.941406 L 62.566406 64.941406 L 62.566406 48.800781 C 62.566406 48.800781 63.199219 39.683594 57.726562 37.1875 C 57.726562 37.1875 48.730469 33.148438 43.847656 40.566406 C 43.847656 40.566406 42.78125 41.300781 42.632812 39.242188 C 42.488281 37.1875 41.238281 42.402344 41.203125 42.511719 C 41.164062 42.621094 42.632812 52.90625 42.632812 52.90625 Z M 44.023438 51.765625 " fill-opacity="1" fill-rule="nonzero"/></svg>