<svg height="100" preserveAspectRatio="xMidYMid meet" viewBox="0 0 75 74.999997" width="100" xmlns="http://www.w3.org/2000/svg" zoomAndPan="magnify"><path d="m-7.5-7.5h90v89.999996h-90z" fill="#fff"/><path d="m-7.5-7.5h90v89.999996h-90z" fill="#fff"/><path d="m47.210938 58.71875-5.382813-1.40625v-25.6875l5.761719-1.460938c3.160156-.800781 5.8125-1.457031 5.9375-1.429687.101562 0 .179687 7.058594.179687 15.707031v15.710938l-.558593-.027344c-.328126 0-3.007813-.652344-5.9375-1.410156zm0 0" fill="#ff5757"/><path d="m22.113281 52.257812c0-8.640624.078125-15.730468.203125-15.730468.101563-.027344 2.753906.632812 5.9375 1.433594l5.738282 1.457031-.050782 12.792969-.074218 12.792968-5.15625 1.332032c-2.832032.726562-5.484376 1.40625-5.863282 1.480468l-.734375.179688zm0 0" fill="#f972a7"/><path d="m60.78125 39.417969c0-28.527344.027344-30.058594.457031-29.933594.226563.074219 2.476563.652344 4.976563 1.28125 2.503906.65625 4.980468 1.28125 5.511718 1.40625l.933594.253906-.050781 27.042969-.074219 27.066406-5.132812 1.308594c-2.804688.726562-5.457032 1.378906-5.863282 1.484375l-.757812.171875zm0 0" fill="#c66ef2"/><path d="m3.160156 39.519531c0-14.78125.074219-26.871093.203125-26.871093.097657 0 2.753907.65625 5.910157 1.433593l5.765624 1.457031v23.953126c0 13.144531-.050781 23.929687-.101562 23.929687-.078125 0-2.753906.679687-5.941406 1.484375l-5.835938 1.476562v-26.867187zm0 0" fill="#c554ac" fill-rule="evenodd"/></svg>