<svg xmlns="http://www.w3.org/2000/svg" xmlns:xlink="http://www.w3.org/1999/xlink" width="100" zoomAndPan="magnify" viewBox="0 0 75 74.999997" height="100" preserveAspectRatio="xMidYMid meet" version="1.0"><defs><clipPath id="9a0f2c4149"><path d="M 1.085938 1.085938 L 73 1.085938 L 73 45 L 1.085938 45 Z M 1.085938 1.085938 " clip-rule="nonzero"/></clipPath><clipPath id="17990b56ba"><path d="M 30 40 L 73.835938 40 L 73.835938 73.835938 L 30 73.835938 Z M 30 40 " clip-rule="nonzero"/></clipPath><clipPath id="0a69e90be4"><path d="M 1.085938 47 L 27 47 L 27 73.835938 L 1.085938 73.835938 Z M 1.085938 47 " clip-rule="nonzero"/></clipPath></defs><rect x="-7.5" width="90" fill="#ffffff" y="-7.5" height="89.999996" fill-opacity="1"/><rect x="-7.5" width="90" fill="#ffffff" y="-7.5" height="89.999996" fill-opacity="1"/><g clip-path="url(#9a0f2c4149)"><path fill="#a953d5" d="M 24.679688 44.488281 C 26.625 44.488281 30.507812 44.390625 35.945312 42.15625 C 42.253906 39.535156 54.683594 34.875 63.714844 30.019531 C 70.023438 26.625 72.742188 22.15625 72.742188 16.136719 C 72.742188 7.882812 66.042969 1.085938 57.691406 1.085938 L 22.738281 1.085938 C 10.796875 1.085938 1.085938 10.796875 1.085938 22.738281 C 1.085938 34.683594 10.214844 44.488281 24.679688 44.488281 Z M 24.679688 44.488281 " fill-opacity="1" fill-rule="evenodd"/></g><g clip-path="url(#17990b56ba)"><path fill="#ff5757" d="M 30.605469 59.34375 C 30.605469 53.519531 34.097656 48.179688 39.535156 45.945312 L 50.507812 41.382812 C 61.675781 36.816406 73.90625 44.972656 73.90625 57.011719 C 73.90625 66.335938 66.335938 73.90625 57.011719 73.90625 L 45.070312 73.90625 C 37.109375 73.90625 30.605469 67.402344 30.605469 59.34375 Z M 30.605469 59.34375 " fill-opacity="1" fill-rule="evenodd"/></g><g clip-path="url(#0a69e90be4)"><path fill="#db568d" d="M 13.613281 47.304688 C 6.71875 47.304688 1.085938 52.9375 1.085938 59.828125 L 1.085938 61.480469 C 1.085938 68.277344 6.71875 73.90625 13.613281 73.90625 C 20.507812 73.90625 26.136719 68.277344 26.136719 61.382812 L 26.136719 59.730469 C 26.039062 52.9375 20.507812 47.304688 13.613281 47.304688 Z M 13.613281 47.304688 " fill-opacity="1" fill-rule="nonzero"/></g></svg>