<svg xmlns="http://www.w3.org/2000/svg" xmlns:xlink="http://www.w3.org/1999/xlink" width="100" zoomAndPan="magnify" viewBox="0 0 75 74.999997" height="100" preserveAspectRatio="xMidYMid meet" version="1.0"><defs><clipPath id="0d92a98e16"><path d="M 7 2 L 36 2 L 36 73 L 7 73 Z M 7 2 " clip-rule="nonzero"/></clipPath><clipPath id="6eef01c6c6"><path d="M 7.015625 51.339844 L 7.015625 23.792969 C 7.015625 21.695312 8.410156 19.320312 10.367188 18.199219 L 35.398438 2.675781 L 35.398438 17.917969 L 20.855469 26.726562 C 19.460938 27.566406 18.621094 29.101562 18.621094 30.503906 L 18.621094 45.886719 C 18.621094 47.28125 19.320312 48.683594 20.296875 49.238281 L 35.398438 58.191406 L 35.398438 72.3125 L 9.53125 56.375 C 8.132812 55.394531 7.015625 53.296875 7.015625 51.339844 Z M 7.015625 51.339844 " clip-rule="nonzero"/></clipPath><linearGradient x1="2115.969899" gradientTransform="matrix(0.266679, 0, 0, 0.266679, -557.270366, -81.699499)" y1="446.95999" x2="2222.409897" gradientUnits="userSpaceOnUse" y2="446.95999" id="abb27e3617"><stop stop-opacity="1" stop-color="rgb(100%, 34.098816%, 34.098816%)" offset="0"/><stop stop-opacity="1" stop-color="rgb(100%, 34.098816%, 34.098816%)" offset="0.25"/><stop stop-opacity="1" stop-color="rgb(99.911499%, 34.095764%, 34.231567%)" offset="0.28125"/><stop stop-opacity="1" stop-color="rgb(99.705505%, 34.091187%, 34.539795%)" offset="0.3125"/><stop stop-opacity="1" stop-color="rgb(99.473572%, 34.083557%, 34.889221%)" offset="0.34375"/><stop stop-opacity="1" stop-color="rgb(99.240112%, 34.077454%, 35.240173%)" offset="0.375"/><stop stop-opacity="1" stop-color="rgb(99.006653%, 34.07135%, 35.591125%)" offset="0.40625"/><stop stop-opacity="1" stop-color="rgb(98.773193%, 34.063721%, 35.940552%)" offset="0.4375"/><stop stop-opacity="1" stop-color="rgb(98.539734%, 34.057617%, 36.291504%)" offset="0.46875"/><stop stop-opacity="1" stop-color="rgb(98.3078%, 34.051514%, 36.642456%)" offset="0.5"/><stop stop-opacity="1" stop-color="rgb(98.074341%, 34.043884%, 36.993408%)" offset="0.53125"/><stop stop-opacity="1" stop-color="rgb(97.840881%, 34.037781%, 37.342834%)" offset="0.5625"/><stop stop-opacity="1" stop-color="rgb(97.607422%, 34.031677%, 37.693787%)" offset="0.59375"/><stop stop-opacity="1" stop-color="rgb(97.373962%, 34.024048%, 38.044739%)" offset="0.625"/><stop stop-opacity="1" stop-color="rgb(97.142029%, 34.017944%, 38.394165%)" offset="0.65625"/><stop stop-opacity="1" stop-color="rgb(96.908569%, 34.011841%, 38.745117%)" offset="0.6875"/><stop stop-opacity="1" stop-color="rgb(96.67511%, 34.004211%, 39.096069%)" offset="0.71875"/><stop stop-opacity="1" stop-color="rgb(96.44165%, 33.998108%, 39.447021%)" offset="0.75"/><stop stop-opacity="1" stop-color="rgb(96.209717%, 33.992004%, 39.796448%)" offset="0.78125"/><stop stop-opacity="1" stop-color="rgb(95.976257%, 33.984375%, 40.1474%)" offset="0.8125"/><stop stop-opacity="1" stop-color="rgb(95.742798%, 33.978271%, 40.498352%)" offset="0.84375"/><stop stop-opacity="1" stop-color="rgb(95.509338%, 33.972168%, 40.847778%)" offset="0.875"/><stop stop-opacity="1" stop-color="rgb(95.275879%, 33.964539%, 41.19873%)" offset="0.90625"/><stop stop-opacity="1" stop-color="rgb(95.043945%, 33.958435%, 41.549683%)" offset="0.9375"/><stop stop-opacity="1" stop-color="rgb(94.810486%, 33.952332%, 41.900635%)" offset="0.96875"/><stop stop-opacity="1" stop-color="rgb(94.577026%, 33.944702%, 42.250061%)" offset="1"/></linearGradient><clipPath id="14e09a839c"><path d="M 39 2 L 68 2 L 68 73 L 39 73 Z M 39 2 " clip-rule="nonzero"/></clipPath><clipPath id="bcaa2a2e86"><path d="M 39.59375 72.3125 L 39.59375 58.191406 L 54.695312 49.238281 C 55.675781 48.679688 56.375 47.28125 56.375 45.886719 L 56.375 30.503906 C 56.375 29.105469 55.535156 27.566406 54.136719 26.726562 L 39.59375 17.917969 L 39.59375 2.675781 L 64.625 18.199219 C 66.582031 19.316406 67.980469 21.695312 67.980469 23.789062 L 67.980469 51.335938 C 67.980469 53.292969 66.863281 55.390625 65.460938 56.371094 L 39.59375 72.308594 Z M 39.59375 72.3125 " clip-rule="nonzero"/></clipPath><linearGradient x1="2238.139893" gradientTransform="matrix(0.266679, 0, 0, 0.266679, -557.270366, -81.699499)" y1="446.95999" x2="2344.579893" gradientUnits="userSpaceOnUse" y2="446.95999" id="33a55c046e"><stop stop-opacity="1" stop-color="rgb(93.359375%, 33.911133%, 44.084167%)" offset="0"/><stop stop-opacity="1" stop-color="rgb(93.241882%, 33.906555%, 44.258118%)" offset="0.03125"/><stop stop-opacity="1" stop-color="rgb(93.008423%, 33.900452%, 44.60907%)" offset="0.0625"/><stop stop-opacity="1" stop-color="rgb(92.774963%, 33.894348%, 44.960022%)" offset="0.09375"/><stop stop-opacity="1" stop-color="rgb(92.541504%, 33.886719%, 45.310974%)" offset="0.125"/><stop stop-opacity="1" stop-color="rgb(92.30957%, 33.880615%, 45.6604%)" offset="0.15625"/><stop stop-opacity="1" stop-color="rgb(92.076111%, 33.874512%, 46.011353%)" offset="0.1875"/><stop stop-opacity="1" stop-color="rgb(91.842651%, 33.866882%, 46.362305%)" offset="0.21875"/><stop stop-opacity="1" stop-color="rgb(91.609192%, 33.860779%, 46.711731%)" offset="0.25"/><stop stop-opacity="1" stop-color="rgb(91.375732%, 33.854675%, 47.062683%)" offset="0.28125"/><stop stop-opacity="1" stop-color="rgb(91.143799%, 33.847046%, 47.413635%)" offset="0.3125"/><stop stop-opacity="1" stop-color="rgb(90.910339%, 33.840942%, 47.764587%)" offset="0.34375"/><stop stop-opacity="1" stop-color="rgb(90.67688%, 33.834839%, 48.114014%)" offset="0.375"/><stop stop-opacity="1" stop-color="rgb(90.44342%, 33.827209%, 48.464966%)" offset="0.40625"/><stop stop-opacity="1" stop-color="rgb(90.211487%, 33.821106%, 48.815918%)" offset="0.4375"/><stop stop-opacity="1" stop-color="rgb(89.978027%, 33.815002%, 49.165344%)" offset="0.46875"/><stop stop-opacity="1" stop-color="rgb(89.744568%, 33.807373%, 49.516296%)" offset="0.5"/><stop stop-opacity="1" stop-color="rgb(89.511108%, 33.80127%, 49.867249%)" offset="0.53125"/><stop stop-opacity="1" stop-color="rgb(89.277649%, 33.795166%, 50.218201%)" offset="0.5625"/><stop stop-opacity="1" stop-color="rgb(89.045715%, 33.787537%, 50.567627%)" offset="0.59375"/><stop stop-opacity="1" stop-color="rgb(88.812256%, 33.781433%, 50.918579%)" offset="0.625"/><stop stop-opacity="1" stop-color="rgb(88.578796%, 33.77533%, 51.269531%)" offset="0.65625"/><stop stop-opacity="1" stop-color="rgb(88.345337%, 33.7677%, 51.618958%)" offset="0.6875"/><stop stop-opacity="1" stop-color="rgb(88.113403%, 33.761597%, 51.96991%)" offset="0.71875"/><stop stop-opacity="1" stop-color="rgb(87.879944%, 33.755493%, 52.320862%)" offset="0.75"/><stop stop-opacity="1" stop-color="rgb(87.646484%, 33.747864%, 52.671814%)" offset="0.78125"/><stop stop-opacity="1" stop-color="rgb(87.413025%, 33.74176%, 53.02124%)" offset="0.8125"/><stop stop-opacity="1" stop-color="rgb(87.179565%, 33.735657%, 53.372192%)" offset="0.84375"/><stop stop-opacity="1" stop-color="rgb(86.947632%, 33.728027%, 53.723145%)" offset="0.875"/><stop stop-opacity="1" stop-color="rgb(86.714172%, 33.721924%, 54.072571%)" offset="0.90625"/><stop stop-opacity="1" stop-color="rgb(86.480713%, 33.71582%, 54.423523%)" offset="0.9375"/><stop stop-opacity="1" stop-color="rgb(86.247253%, 33.708191%, 54.774475%)" offset="0.96875"/><stop stop-opacity="1" stop-color="rgb(86.01532%, 33.702087%, 55.123901%)" offset="1"/></linearGradient></defs><rect x="-7.5" width="90" fill="#ffffff" y="-7.5" height="89.999996" fill-opacity="1"/><rect x="-7.5" width="90" fill="#ffffff" y="-7.5" height="89.999996" fill-opacity="1"/><path fill="#a953d5" d="M 7.015625 51.339844 L 7.015625 23.792969 C 7.015625 21.695312 8.410156 19.320312 10.367188 18.199219 L 35.398438 2.675781 L 35.398438 17.917969 L 20.855469 26.726562 C 19.460938 27.566406 18.621094 29.101562 18.621094 30.503906 L 18.621094 45.886719 C 18.621094 47.28125 19.320312 48.683594 20.296875 49.238281 L 35.398438 58.191406 L 35.398438 72.3125 L 9.53125 56.375 C 8.132812 55.394531 7.015625 53.296875 7.015625 51.339844 Z M 7.015625 51.339844 " fill-opacity="1" fill-rule="nonzero"/><path fill="#a953d5" d="M 39.59375 72.3125 L 39.59375 58.191406 L 54.695312 49.238281 C 55.675781 48.679688 56.375 47.28125 56.375 45.886719 L 56.375 30.503906 C 56.375 29.105469 55.535156 27.566406 54.136719 26.726562 L 39.59375 17.917969 L 39.59375 2.675781 L 64.625 18.199219 C 66.582031 19.316406 67.980469 21.695312 67.980469 23.789062 L 67.980469 51.335938 C 67.980469 53.292969 66.863281 55.390625 65.460938 56.371094 L 39.59375 72.308594 Z M 39.59375 72.3125 " fill-opacity="1" fill-rule="nonzero"/><g clip-path="url(#0d92a98e16)"><g clip-path="url(#6eef01c6c6)"><path fill="url(#abb27e3617)" d="M 7.015625 2.675781 L 7.015625 72.3125 L 35.398438 72.3125 L 35.398438 2.675781 Z M 7.015625 2.675781 " fill-rule="nonzero"/></g></g><g clip-path="url(#14e09a839c)"><g clip-path="url(#bcaa2a2e86)"><path fill="url(#33a55c046e)" d="M 39.59375 2.675781 L 39.59375 72.3125 L 67.980469 72.3125 L 67.980469 2.675781 Z M 39.59375 2.675781 " fill-rule="nonzero"/></g></g></svg>