<svg height="100" preserveAspectRatio="xMidYMid meet" viewBox="0 0 75 74.999997" width="100" xmlns="http://www.w3.org/2000/svg" zoomAndPan="magnify"><path d="m19.507812 8.109375 17.378907 16.011719v-15.972656h3.382812v16.046874l17.453125-16.085937v18.257813h7.167969v26.328124h-7.144531v16.257813l-17.476563-15.355469v15.53125h-3.382812v-15.277344l-17.359375 15.289063v-16.445313h-7.167969v-26.328124h7.148437zm14.828126 21.597656h-18.59375v19.648438h3.78125v-6.199219zm-11.425782 14.933594v17.042969l13.976563-12.308594v-17.429688zm17.453125 4.570313v-17.28125l13.980469 12.695312v8.070312h.019531v8.8125zm17.382813.144531h3.761718v-19.648438h-18.453124l14.691406 13.3125zm-3.40625-22.988281v-10.570313l-11.46875 10.570313zm-19.980469 0h-11.46875v-10.570313zm0 0" fill-rule="evenodd"/></svg>